<svg width="981" height="336" viewBox="0 0 981 336" fill="none" xmlns="http://www.w3.org/2000/svg">
<g filter="url(#filter0_d_85_85)">
<mask id="path-1-outside-1_85_85" maskUnits="userSpaceOnUse" x="0" y="0" width="981" height="321" fill="black">
<rect fill="white" width="981" height="321"/>
<path d="M930.18 208.768C931.658 208.028 922.049 218.931 909.853 222.257C904.864 223.551 893.037 225.953 884.722 221.518C881.95 220.409 879.363 218.377 877.33 215.235C857.558 186.408 880.472 152.777 873.45 144.276C872.526 143.722 871.417 143.168 869.939 142.983C860.884 142.428 852.753 150.005 847.949 156.288C847.949 173.103 847.949 191.767 847.949 204.887C847.949 206.735 847.949 208.768 847.949 210.431C847.949 214.496 852.753 221.703 855.34 222.072C855.34 222.442 855.34 224.105 855.34 224.105H805.632C805.632 224.105 805.632 222.442 805.632 222.072C807.85 221.703 812.285 215.05 812.839 211.17C812.839 190.658 812.839 151.298 812.839 131.341C810.621 116.188 802.491 115.449 802.491 115.449V113.417C829.1 113.417 842.036 99.3726 845.916 95.1224C847.025 95.1224 847.949 95.1224 847.949 95.1224V120.438C847.949 124.689 847.949 131.526 847.949 139.841C847.949 142.983 847.949 146.309 847.949 149.635C854.786 141.504 867.167 132.08 879.917 130.787C879.917 130.787 916.875 128.754 909.114 161.277C901.907 191.397 905.418 205.441 918.169 210.061C921.31 210.615 925.191 210.431 930.18 208.768Z"/>
<path d="M796.947 188.256C798.056 183.452 803.045 185.115 802.491 188.995C800.273 209.137 781.055 224.105 759.62 224.105C732.271 224.105 709.912 203.039 709.912 176.984C709.912 151.113 732.271 130.048 759.62 130.048C783.827 130.048 808.589 150.744 795.284 170.147C785.675 183.821 752.783 190.473 759.25 167.375C765.903 143.168 758.881 135.591 748.532 138.548C737.63 141.689 733.749 161.462 740.587 182.528C751.304 215.235 791.219 210.246 796.947 188.256Z"/>
<path d="M663.708 224.105C650.444 224.105 640.429 221.488 633.571 216.255C626.624 211.112 622.744 206.059 621.751 201.187C620.759 196.315 620.217 192.705 620.217 190.45C620.217 185.667 621.3 181.066 623.466 176.735C628.428 166.9 636.82 161.937 648.549 161.937C654.234 161.937 660.64 163.381 667.768 166.178C668.219 166.359 668.58 166.449 668.851 166.449C669.482 166.449 669.843 166.178 669.843 165.727C669.843 165.366 669.392 164.825 668.49 164.193C665.693 162.479 661.813 161.125 656.85 160.133C651.798 159.14 646.745 158.418 641.782 158.148C634.113 157.516 628.609 155.17 625.27 151.11C621.932 147.05 620.217 142.899 620.217 138.658C620.217 131.169 624.278 124.763 632.398 119.439C639.165 115.018 649.091 112.672 662.354 112.221H663.257C668.039 112.221 672.189 112.672 675.889 113.575C679.588 114.477 682.836 115.469 685.814 116.552C690.596 118.267 694.115 119.169 696.28 119.169C697.544 119.169 698.807 118.988 699.98 118.627C696.1 128.372 691.949 134.869 687.618 138.027C683.197 141.185 679.047 142.809 675.077 142.809C673.994 142.809 672.911 142.719 671.828 142.538C666.776 141.636 661.903 139.38 657.302 135.681C652.7 131.981 648.64 127.831 645.121 123.049C644.128 121.785 643.406 121.154 642.865 121.154C642.594 121.154 642.414 121.244 642.323 121.425C642.053 121.785 641.872 122.327 641.872 123.139C641.872 123.68 641.963 124.312 642.053 125.034C644.128 133.696 647.467 140.192 651.888 144.523C656.309 148.854 660.82 152.283 665.603 154.899C668.039 156.343 670.385 157.787 672.46 159.321C674.535 160.855 676.34 162.659 677.874 164.734C678.595 165.817 678.956 166.81 678.956 167.712C678.956 168.344 678.776 168.975 678.325 169.607C677.513 170.78 676.43 171.411 674.896 171.411H674.265C672.64 171.231 671.107 171.141 669.663 171.141C663.257 171.141 658.204 172.945 654.324 176.464C649.542 180.885 646.925 185.036 646.294 189.096C645.662 193.156 645.301 196.044 645.301 197.758C645.301 202.179 646.294 206.24 648.279 209.939C650.985 215.082 655.587 217.789 661.993 218.15C667.227 218.06 671.197 215.804 673.994 211.473C676.701 207.232 678.415 202.631 679.227 197.758C680.039 192.886 680.4 188.825 680.4 185.487L680.31 181.968C680.31 181.066 680.671 180.615 681.302 180.615C681.663 180.615 682.385 180.885 683.378 181.427C688.34 184.224 692.852 186.75 696.822 189.186C699.438 190.72 701.153 191.893 702.145 192.615C700.431 199.473 697.453 205.247 693.122 209.939C688.701 214.721 683.919 218.24 678.595 220.586C673.272 222.932 668.309 224.105 663.708 224.105Z"/>
<path d="M545.991 126.876C544.143 128.847 542.172 130.879 540.077 132.974C537.983 134.945 535.519 136.793 532.686 138.517C529.976 140.119 526.834 141.474 523.262 142.583C519.689 143.691 515.624 144.246 511.066 144.246L510.881 113.412H535.732C559.334 110.724 572.629 110.725 596.438 113.412H608.819L608.934 133.778C607.232 135.778 607.223 138.011 606.732 140.984C603.965 140.867 601.396 140.512 599.025 139.919C596.068 139.057 593.358 137.948 590.894 136.593C588.431 135.115 586.151 133.513 584.057 131.788C582.086 130.064 580.238 128.277 578.514 126.429C576.542 131.234 574.202 135.423 571.492 138.995C568.905 142.568 566.379 145.956 563.915 149.159C561.575 152.238 559.542 155.318 557.817 158.398C556.092 161.478 555.23 164.866 555.23 168.561C555.23 173.489 557.034 174.273 559.507 175.278C562.464 179.344 565.64 181.722 569.089 186.404C572.662 191.085 575.865 196.444 578.698 202.48C581.532 208.394 582.948 215.662 582.948 224.285H545.991V126.876Z"/>
<path d="M457.004 225.368C454.568 225.368 452.222 225.098 449.966 224.466C447.71 223.925 445.906 223.112 444.372 221.94C442.116 220.135 440.312 217.789 438.958 214.902C437.605 212.014 436.883 208.856 436.883 205.337C436.883 202.631 437.334 199.833 438.327 196.946C441.124 189.728 446.357 184.134 454.207 180.164C462.057 176.193 469.817 174.208 477.666 174.208C478.749 174.208 480.824 174.389 483.802 174.66C484.795 174.66 485.246 174.208 485.246 173.396C485.246 170.419 484.434 167.171 482.81 163.652C481.366 160.584 479.471 157.877 477.035 155.621C474.599 153.366 471.711 152.283 468.553 152.283C466.207 152.283 463.681 153.997 460.974 157.336C458.448 160.494 456.102 163.832 453.846 167.351C452.222 169.877 450.778 172.043 449.515 173.757C448.162 175.472 447.079 176.374 446.267 176.374C445.635 176.374 445.094 175.652 444.733 174.208C444.643 174.028 444.643 173.848 444.643 173.577C443.831 170.058 443.019 165.817 442.116 160.855C441.665 158.599 441.485 157.155 441.485 156.524C444.643 153.726 448.793 151.471 454.027 149.847C459.17 148.223 464.674 147.41 470.358 147.41C480.012 147.41 488.043 149.576 494.449 153.997C501.758 159.05 505.457 166.539 505.457 176.374L505.367 178.449C504.916 186.841 504.645 194.149 504.645 200.555C504.645 210.029 505.277 217.969 506.449 224.285H473.245C474.057 223.112 474.599 221.669 474.869 220.135C474.869 219.774 474.779 219.594 474.599 219.594C474.508 219.594 474.328 219.684 474.238 219.774C474.057 219.954 473.877 220.135 473.787 220.225C473.606 220.315 473.516 220.406 473.426 220.496C471.711 222.03 469.275 223.293 466.298 224.105C463.32 224.917 460.162 225.368 457.004 225.368ZM469.817 215.804C471.35 215.804 472.794 215.353 474.238 214.36C475.681 213.458 476.764 212.375 477.486 211.022C479.291 207.503 480.915 202.991 482.268 197.487C483.622 191.984 484.253 187.562 484.253 184.404C484.253 183.231 484.073 182.058 483.622 181.066C483.17 180.073 481.997 179.622 480.103 179.532C476.945 179.532 473.967 180.795 471.26 183.322C468.553 185.938 466.388 189.096 464.764 192.796C463.14 196.585 462.328 200.285 462.328 203.984C462.328 207.683 463.32 210.932 465.305 213.638C466.659 215.082 468.192 215.804 469.817 215.804Z"/>
<path d="M356.685 222.065C354.96 222.065 353.235 221.942 351.511 221.696C349.786 221.572 348.061 221.388 346.337 221.141L356.13 171.433C357.362 164.657 358.656 157.512 360.011 149.998C361.489 142.36 362.906 134.845 364.261 127.453C365.616 119.939 366.786 112.978 367.772 106.572C368.881 100.166 369.743 94.7457 370.359 90.3108C375.656 89.3252 381.015 88.4013 386.436 87.5389C391.856 86.6766 397.4 86.2454 403.067 86.2454C412.183 86.2454 419.39 88.1549 424.687 91.9738C429.984 95.6696 433.803 100.597 436.144 106.757C438.485 112.793 439.655 119.446 439.655 126.714C439.655 133.243 438.731 140.142 436.883 147.41C435.035 154.556 432.386 161.701 428.937 168.846C425.611 175.868 421.607 182.52 416.926 188.803C409.657 198.535 400.788 206.543 390.316 212.826C379.968 218.985 368.758 222.065 356.685 222.065ZM378.675 198.782C382.986 195.948 387.052 191.637 390.871 185.847C394.813 180.056 398.509 173.096 401.958 164.965C405.038 157.451 407.44 150.367 409.165 143.715C410.889 136.939 411.752 131.334 411.752 126.899C411.752 122.341 410.458 118.768 407.871 116.181C405.407 113.594 401.465 112.301 396.045 112.301C394.074 122.895 392.041 132.689 389.947 141.682C387.976 150.675 386.005 159.73 384.033 168.846C382.186 177.962 380.399 187.941 378.675 198.782Z"/>
<path d="M253.666 128.206H303.928C327.828 128.575 339.777 140.894 339.777 165.163V168.859H266.601C265.615 169.968 264.753 171.077 264.014 172.185C263.398 173.171 263.09 174.341 263.09 175.696C263.09 177.667 263.767 179.515 265.123 181.24C266.478 182.841 268.141 184.505 270.112 186.229C272.206 187.831 274.424 189.617 276.764 191.588C279.228 193.436 281.446 195.592 283.417 198.056C285.511 200.396 287.174 203.168 288.406 206.371C289.761 209.451 290.439 213.024 290.439 217.089C294.874 217.089 298.015 215.734 299.863 213.024C301.834 210.313 303.066 207.172 303.559 203.599C304.051 199.904 304.051 196.208 303.559 192.512C303.189 188.693 303.004 185.675 303.004 183.457H339.962C340.332 189.74 339.531 195.222 337.56 199.904C335.589 204.585 332.755 208.465 329.06 211.545C325.487 214.625 321.237 216.966 316.309 218.567C311.381 220.046 306.146 220.723 300.602 220.6H253.85L253.666 128.206ZM302.819 165.163C302.819 162.946 303.004 159.989 303.374 156.293C303.867 152.474 303.867 148.779 303.374 145.206C303.004 141.51 301.896 138.369 300.048 135.782C298.2 133.072 295.058 131.717 290.623 131.717C290.623 136.398 289.946 140.463 288.591 143.913C287.359 147.362 285.696 150.38 283.601 152.967C281.63 155.554 279.475 157.833 277.134 159.804C274.916 161.652 272.761 163.439 270.666 165.163H302.819Z"/>
<path d="M108.024 258.072V256.963C120.959 241.256 120.774 161.243 120.774 138.329V125.763C120.774 115.97 120.774 105.991 120.405 96.1972C119.665 79.1966 119.111 53.6958 96.382 53.6958C86.2186 53.6958 78.6423 59.7938 78.6423 70.5115C78.6423 79.0118 85.1099 86.2186 93.7949 86.2186C96.0124 86.2186 98.4146 85.6642 100.447 84.5555L101.002 86.2186C95.0884 94.3493 84.5555 97.6755 74.9465 97.6755C61.0873 97.6755 50 90.284 50 75.5008C50 55.3589 75.1313 50 91.0231 50C109.317 50 127.426 53.1414 145.721 53.1414C162.352 53.1414 178.983 50.7392 195.614 50.7392C226.288 50.7392 243.843 72.729 243.843 102.295C243.843 125.579 231.463 153.112 206.516 158.286C217.973 185.82 250.311 265.279 285.051 265.279C294.845 265.279 302.421 258.072 302.421 248.278C302.421 237.93 293.921 233.31 284.497 234.05V233.126C289.856 229.43 296.508 227.397 302.976 227.397C314.987 227.397 328.846 232.941 328.846 246.985C328.846 262.507 312.954 270.638 299.28 270.638C286.53 270.638 274.334 266.757 261.953 263.801C248.094 260.474 233.865 258.257 219.636 258.257C214.092 258.257 208.734 258.626 203.19 259.181C202.82 241.072 175.656 160.504 155.514 160.504C155.699 179.722 156.069 243.659 168.265 256.963V258.072C158.101 256.963 147.938 256.224 137.775 256.224C127.796 256.224 117.817 256.963 108.024 258.072ZM155.514 155.145V155.699C157.177 155.884 158.656 155.884 160.319 155.884C190.255 155.884 205.407 132.231 205.407 104.328C205.407 85.849 196.537 56.2828 173.624 56.2828C160.319 56.2828 156.254 64.5983 156.254 76.6096C156.254 102.85 155.514 128.905 155.514 155.145Z"/>
</mask>
<path d="M930.18 208.768C931.658 208.028 922.049 218.931 909.853 222.257C904.864 223.551 893.037 225.953 884.722 221.518C881.95 220.409 879.363 218.377 877.33 215.235C857.558 186.408 880.472 152.777 873.45 144.276C872.526 143.722 871.417 143.168 869.939 142.983C860.884 142.428 852.753 150.005 847.949 156.288C847.949 173.103 847.949 191.767 847.949 204.887C847.949 206.735 847.949 208.768 847.949 210.431C847.949 214.496 852.753 221.703 855.34 222.072C855.34 222.442 855.34 224.105 855.34 224.105H805.632C805.632 224.105 805.632 222.442 805.632 222.072C807.85 221.703 812.285 215.05 812.839 211.17C812.839 190.658 812.839 151.298 812.839 131.341C810.621 116.188 802.491 115.449 802.491 115.449V113.417C829.1 113.417 842.036 99.3726 845.916 95.1224C847.025 95.1224 847.949 95.1224 847.949 95.1224V120.438C847.949 124.689 847.949 131.526 847.949 139.841C847.949 142.983 847.949 146.309 847.949 149.635C854.786 141.504 867.167 132.08 879.917 130.787C879.917 130.787 916.875 128.754 909.114 161.277C901.907 191.397 905.418 205.441 918.169 210.061C921.31 210.615 925.191 210.431 930.18 208.768Z" fill="#E61425"/>
<path d="M796.947 188.256C798.056 183.452 803.045 185.115 802.491 188.995C800.273 209.137 781.055 224.105 759.62 224.105C732.271 224.105 709.912 203.039 709.912 176.984C709.912 151.113 732.271 130.048 759.62 130.048C783.827 130.048 808.589 150.744 795.284 170.147C785.675 183.821 752.783 190.473 759.25 167.375C765.903 143.168 758.881 135.591 748.532 138.548C737.63 141.689 733.749 161.462 740.587 182.528C751.304 215.235 791.219 210.246 796.947 188.256Z" fill="#F2B505"/>
<path d="M663.708 224.105C650.444 224.105 640.429 221.488 633.571 216.255C626.624 211.112 622.744 206.059 621.751 201.187C620.759 196.315 620.217 192.705 620.217 190.45C620.217 185.667 621.3 181.066 623.466 176.735C628.428 166.9 636.82 161.937 648.549 161.937C654.234 161.937 660.64 163.381 667.768 166.178C668.219 166.359 668.58 166.449 668.851 166.449C669.482 166.449 669.843 166.178 669.843 165.727C669.843 165.366 669.392 164.825 668.49 164.193C665.693 162.479 661.813 161.125 656.85 160.133C651.798 159.14 646.745 158.418 641.782 158.148C634.113 157.516 628.609 155.17 625.27 151.11C621.932 147.05 620.217 142.899 620.217 138.658C620.217 131.169 624.278 124.763 632.398 119.439C639.165 115.018 649.091 112.672 662.354 112.221H663.257C668.039 112.221 672.189 112.672 675.889 113.575C679.588 114.477 682.836 115.469 685.814 116.552C690.596 118.267 694.115 119.169 696.28 119.169C697.544 119.169 698.807 118.988 699.98 118.627C696.1 128.372 691.949 134.869 687.618 138.027C683.197 141.185 679.047 142.809 675.077 142.809C673.994 142.809 672.911 142.719 671.828 142.538C666.776 141.636 661.903 139.38 657.302 135.681C652.7 131.981 648.64 127.831 645.121 123.049C644.128 121.785 643.406 121.154 642.865 121.154C642.594 121.154 642.414 121.244 642.323 121.425C642.053 121.785 641.872 122.327 641.872 123.139C641.872 123.68 641.963 124.312 642.053 125.034C644.128 133.696 647.467 140.192 651.888 144.523C656.309 148.854 660.82 152.283 665.603 154.899C668.039 156.343 670.385 157.787 672.46 159.321C674.535 160.855 676.34 162.659 677.874 164.734C678.595 165.817 678.956 166.81 678.956 167.712C678.956 168.344 678.776 168.975 678.325 169.607C677.513 170.78 676.43 171.411 674.896 171.411H674.265C672.64 171.231 671.107 171.141 669.663 171.141C663.257 171.141 658.204 172.945 654.324 176.464C649.542 180.885 646.925 185.036 646.294 189.096C645.662 193.156 645.301 196.044 645.301 197.758C645.301 202.179 646.294 206.24 648.279 209.939C650.985 215.082 655.587 217.789 661.993 218.15C667.227 218.06 671.197 215.804 673.994 211.473C676.701 207.232 678.415 202.631 679.227 197.758C680.039 192.886 680.4 188.825 680.4 185.487L680.31 181.968C680.31 181.066 680.671 180.615 681.302 180.615C681.663 180.615 682.385 180.885 683.378 181.427C688.34 184.224 692.852 186.75 696.822 189.186C699.438 190.72 701.153 191.893 702.145 192.615C700.431 199.473 697.453 205.247 693.122 209.939C688.701 214.721 683.919 218.24 678.595 220.586C673.272 222.932 668.309 224.105 663.708 224.105Z" fill="#F55FC0"/>
<path d="M545.991 126.876C544.143 128.847 542.172 130.879 540.077 132.974C537.983 134.945 535.519 136.793 532.686 138.517C529.976 140.119 526.834 141.474 523.262 142.583C519.689 143.691 515.624 144.246 511.066 144.246L510.881 113.412H535.732C559.334 110.724 572.629 110.725 596.438 113.412H608.819L608.934 133.778C607.232 135.778 607.223 138.011 606.732 140.984C603.965 140.867 601.396 140.512 599.025 139.919C596.068 139.057 593.358 137.948 590.894 136.593C588.431 135.115 586.151 133.513 584.057 131.788C582.086 130.064 580.238 128.277 578.514 126.429C576.542 131.234 574.202 135.423 571.492 138.995C568.905 142.568 566.379 145.956 563.915 149.159C561.575 152.238 559.542 155.318 557.817 158.398C556.092 161.478 555.23 164.866 555.23 168.561C555.23 173.489 557.034 174.273 559.507 175.278C562.464 179.344 565.64 181.722 569.089 186.404C572.662 191.085 575.865 196.444 578.698 202.48C581.532 208.394 582.948 215.662 582.948 224.285H545.991V126.876Z" fill="#0265DE"/>
<path d="M457.004 225.368C454.568 225.368 452.222 225.098 449.966 224.466C447.71 223.925 445.906 223.112 444.372 221.94C442.116 220.135 440.312 217.789 438.958 214.902C437.605 212.014 436.883 208.856 436.883 205.337C436.883 202.631 437.334 199.833 438.327 196.946C441.124 189.728 446.357 184.134 454.207 180.164C462.057 176.193 469.817 174.208 477.666 174.208C478.749 174.208 480.824 174.389 483.802 174.66C484.795 174.66 485.246 174.208 485.246 173.396C485.246 170.419 484.434 167.171 482.81 163.652C481.366 160.584 479.471 157.877 477.035 155.621C474.599 153.366 471.711 152.283 468.553 152.283C466.207 152.283 463.681 153.997 460.974 157.336C458.448 160.494 456.102 163.832 453.846 167.351C452.222 169.877 450.778 172.043 449.515 173.757C448.162 175.472 447.079 176.374 446.267 176.374C445.635 176.374 445.094 175.652 444.733 174.208C444.643 174.028 444.643 173.848 444.643 173.577C443.831 170.058 443.019 165.817 442.116 160.855C441.665 158.599 441.485 157.155 441.485 156.524C444.643 153.726 448.793 151.471 454.027 149.847C459.17 148.223 464.674 147.41 470.358 147.41C480.012 147.41 488.043 149.576 494.449 153.997C501.758 159.05 505.457 166.539 505.457 176.374L505.367 178.449C504.916 186.841 504.645 194.149 504.645 200.555C504.645 210.029 505.277 217.969 506.449 224.285H473.245C474.057 223.112 474.599 221.669 474.869 220.135C474.869 219.774 474.779 219.594 474.599 219.594C474.508 219.594 474.328 219.684 474.238 219.774C474.057 219.954 473.877 220.135 473.787 220.225C473.606 220.315 473.516 220.406 473.426 220.496C471.711 222.03 469.275 223.293 466.298 224.105C463.32 224.917 460.162 225.368 457.004 225.368ZM469.817 215.804C471.35 215.804 472.794 215.353 474.238 214.36C475.681 213.458 476.764 212.375 477.486 211.022C479.291 207.503 480.915 202.991 482.268 197.487C483.622 191.984 484.253 187.562 484.253 184.404C484.253 183.231 484.073 182.058 483.622 181.066C483.17 180.073 481.997 179.622 480.103 179.532C476.945 179.532 473.967 180.795 471.26 183.322C468.553 185.938 466.388 189.096 464.764 192.796C463.14 196.585 462.328 200.285 462.328 203.984C462.328 207.683 463.32 210.932 465.305 213.638C466.659 215.082 468.192 215.804 469.817 215.804Z" fill="#0265DE"/>
<path d="M356.685 222.065C354.96 222.065 353.235 221.942 351.511 221.696C349.786 221.572 348.061 221.388 346.337 221.141L356.13 171.433C357.362 164.657 358.656 157.512 360.011 149.998C361.489 142.36 362.906 134.845 364.261 127.453C365.616 119.939 366.786 112.978 367.772 106.572C368.881 100.166 369.743 94.7457 370.359 90.3108C375.656 89.3252 381.015 88.4013 386.436 87.5389C391.856 86.6766 397.4 86.2454 403.067 86.2454C412.183 86.2454 419.39 88.1549 424.687 91.9738C429.984 95.6696 433.803 100.597 436.144 106.757C438.485 112.793 439.655 119.446 439.655 126.714C439.655 133.243 438.731 140.142 436.883 147.41C435.035 154.556 432.386 161.701 428.937 168.846C425.611 175.868 421.607 182.52 416.926 188.803C409.657 198.535 400.788 206.543 390.316 212.826C379.968 218.985 368.758 222.065 356.685 222.065ZM378.675 198.782C382.986 195.948 387.052 191.637 390.871 185.847C394.813 180.056 398.509 173.096 401.958 164.965C405.038 157.451 407.44 150.367 409.165 143.715C410.889 136.939 411.752 131.334 411.752 126.899C411.752 122.341 410.458 118.768 407.871 116.181C405.407 113.594 401.465 112.301 396.045 112.301C394.074 122.895 392.041 132.689 389.947 141.682C387.976 150.675 386.005 159.73 384.033 168.846C382.186 177.962 380.399 187.941 378.675 198.782Z" fill="#0DA144"/>
<path d="M253.666 128.206H303.928C327.828 128.575 339.777 140.894 339.777 165.163V168.859H266.601C265.615 169.968 264.753 171.077 264.014 172.185C263.398 173.171 263.09 174.341 263.09 175.696C263.09 177.667 263.767 179.515 265.123 181.24C266.478 182.841 268.141 184.505 270.112 186.229C272.206 187.831 274.424 189.617 276.764 191.588C279.228 193.436 281.446 195.592 283.417 198.056C285.511 200.396 287.174 203.168 288.406 206.371C289.761 209.451 290.439 213.024 290.439 217.089C294.874 217.089 298.015 215.734 299.863 213.024C301.834 210.313 303.066 207.172 303.559 203.599C304.051 199.904 304.051 196.208 303.559 192.512C303.189 188.693 303.004 185.675 303.004 183.457H339.962C340.332 189.74 339.531 195.222 337.56 199.904C335.589 204.585 332.755 208.465 329.06 211.545C325.487 214.625 321.237 216.966 316.309 218.567C311.381 220.046 306.146 220.723 300.602 220.6H253.85L253.666 128.206ZM302.819 165.163C302.819 162.946 303.004 159.989 303.374 156.293C303.867 152.474 303.867 148.779 303.374 145.206C303.004 141.51 301.896 138.369 300.048 135.782C298.2 133.072 295.058 131.717 290.623 131.717C290.623 136.398 289.946 140.463 288.591 143.913C287.359 147.362 285.696 150.38 283.601 152.967C281.63 155.554 279.475 157.833 277.134 159.804C274.916 161.652 272.761 163.439 270.666 165.163H302.819Z" fill="#F55FC0"/>
<path d="M108.024 258.072V256.963C120.959 241.256 120.774 161.243 120.774 138.329V125.763C120.774 115.97 120.774 105.991 120.405 96.1972C119.665 79.1966 119.111 53.6958 96.382 53.6958C86.2186 53.6958 78.6423 59.7938 78.6423 70.5115C78.6423 79.0118 85.1099 86.2186 93.7949 86.2186C96.0124 86.2186 98.4146 85.6642 100.447 84.5555L101.002 86.2186C95.0884 94.3493 84.5555 97.6755 74.9465 97.6755C61.0873 97.6755 50 90.284 50 75.5008C50 55.3589 75.1313 50 91.0231 50C109.317 50 127.426 53.1414 145.721 53.1414C162.352 53.1414 178.983 50.7392 195.614 50.7392C226.288 50.7392 243.843 72.729 243.843 102.295C243.843 125.579 231.463 153.112 206.516 158.286C217.973 185.82 250.311 265.279 285.051 265.279C294.845 265.279 302.421 258.072 302.421 248.278C302.421 237.93 293.921 233.31 284.497 234.05V233.126C289.856 229.43 296.508 227.397 302.976 227.397C314.987 227.397 328.846 232.941 328.846 246.985C328.846 262.507 312.954 270.638 299.28 270.638C286.53 270.638 274.334 266.757 261.953 263.801C248.094 260.474 233.865 258.257 219.636 258.257C214.092 258.257 208.734 258.626 203.19 259.181C202.82 241.072 175.656 160.504 155.514 160.504C155.699 179.722 156.069 243.659 168.265 256.963V258.072C158.101 256.963 147.938 256.224 137.775 256.224C127.796 256.224 117.817 256.963 108.024 258.072ZM155.514 155.145V155.699C157.177 155.884 158.656 155.884 160.319 155.884C190.255 155.884 205.407 132.231 205.407 104.328C205.407 85.849 196.537 56.2828 173.624 56.2828C160.319 56.2828 156.254 64.5983 156.254 76.6096C156.254 102.85 155.514 128.905 155.514 155.145Z" fill="#F2B505"/>
<path d="M930.18 208.768C931.658 208.028 922.049 218.931 909.853 222.257C904.864 223.551 893.037 225.953 884.722 221.518C881.95 220.409 879.363 218.377 877.33 215.235C857.558 186.408 880.472 152.777 873.45 144.276C872.526 143.722 871.417 143.168 869.939 142.983C860.884 142.428 852.753 150.005 847.949 156.288C847.949 173.103 847.949 191.767 847.949 204.887C847.949 206.735 847.949 208.768 847.949 210.431C847.949 214.496 852.753 221.703 855.34 222.072C855.34 222.442 855.34 224.105 855.34 224.105H805.632C805.632 224.105 805.632 222.442 805.632 222.072C807.85 221.703 812.285 215.05 812.839 211.17C812.839 190.658 812.839 151.298 812.839 131.341C810.621 116.188 802.491 115.449 802.491 115.449V113.417C829.1 113.417 842.036 99.3726 845.916 95.1224C847.025 95.1224 847.949 95.1224 847.949 95.1224V120.438C847.949 124.689 847.949 131.526 847.949 139.841C847.949 142.983 847.949 146.309 847.949 149.635C854.786 141.504 867.167 132.08 879.917 130.787C879.917 130.787 916.875 128.754 909.114 161.277C901.907 191.397 905.418 205.441 918.169 210.061C921.31 210.615 925.191 210.431 930.18 208.768Z" stroke="black" stroke-width="100" stroke-linejoin="round" mask="url(#path-1-outside-1_85_85)"/>
<path d="M796.947 188.256C798.056 183.452 803.045 185.115 802.491 188.995C800.273 209.137 781.055 224.105 759.62 224.105C732.271 224.105 709.912 203.039 709.912 176.984C709.912 151.113 732.271 130.048 759.62 130.048C783.827 130.048 808.589 150.744 795.284 170.147C785.675 183.821 752.783 190.473 759.25 167.375C765.903 143.168 758.881 135.591 748.532 138.548C737.63 141.689 733.749 161.462 740.587 182.528C751.304 215.235 791.219 210.246 796.947 188.256Z" stroke="black" stroke-width="100" stroke-linejoin="round" mask="url(#path-1-outside-1_85_85)"/>
<path d="M663.708 224.105C650.444 224.105 640.429 221.488 633.571 216.255C626.624 211.112 622.744 206.059 621.751 201.187C620.759 196.315 620.217 192.705 620.217 190.45C620.217 185.667 621.3 181.066 623.466 176.735C628.428 166.9 636.82 161.937 648.549 161.937C654.234 161.937 660.64 163.381 667.768 166.178C668.219 166.359 668.58 166.449 668.851 166.449C669.482 166.449 669.843 166.178 669.843 165.727C669.843 165.366 669.392 164.825 668.49 164.193C665.693 162.479 661.813 161.125 656.85 160.133C651.798 159.14 646.745 158.418 641.782 158.148C634.113 157.516 628.609 155.17 625.27 151.11C621.932 147.05 620.217 142.899 620.217 138.658C620.217 131.169 624.278 124.763 632.398 119.439C639.165 115.018 649.091 112.672 662.354 112.221H663.257C668.039 112.221 672.189 112.672 675.889 113.575C679.588 114.477 682.836 115.469 685.814 116.552C690.596 118.267 694.115 119.169 696.28 119.169C697.544 119.169 698.807 118.988 699.98 118.627C696.1 128.372 691.949 134.869 687.618 138.027C683.197 141.185 679.047 142.809 675.077 142.809C673.994 142.809 672.911 142.719 671.828 142.538C666.776 141.636 661.903 139.38 657.302 135.681C652.7 131.981 648.64 127.831 645.121 123.049C644.128 121.785 643.406 121.154 642.865 121.154C642.594 121.154 642.414 121.244 642.323 121.425C642.053 121.785 641.872 122.327 641.872 123.139C641.872 123.68 641.963 124.312 642.053 125.034C644.128 133.696 647.467 140.192 651.888 144.523C656.309 148.854 660.82 152.283 665.603 154.899C668.039 156.343 670.385 157.787 672.46 159.321C674.535 160.855 676.34 162.659 677.874 164.734C678.595 165.817 678.956 166.81 678.956 167.712C678.956 168.344 678.776 168.975 678.325 169.607C677.513 170.78 676.43 171.411 674.896 171.411H674.265C672.64 171.231 671.107 171.141 669.663 171.141C663.257 171.141 658.204 172.945 654.324 176.464C649.542 180.885 646.925 185.036 646.294 189.096C645.662 193.156 645.301 196.044 645.301 197.758C645.301 202.179 646.294 206.24 648.279 209.939C650.985 215.082 655.587 217.789 661.993 218.15C667.227 218.06 671.197 215.804 673.994 211.473C676.701 207.232 678.415 202.631 679.227 197.758C680.039 192.886 680.4 188.825 680.4 185.487L680.31 181.968C680.31 181.066 680.671 180.615 681.302 180.615C681.663 180.615 682.385 180.885 683.378 181.427C688.34 184.224 692.852 186.75 696.822 189.186C699.438 190.72 701.153 191.893 702.145 192.615C700.431 199.473 697.453 205.247 693.122 209.939C688.701 214.721 683.919 218.24 678.595 220.586C673.272 222.932 668.309 224.105 663.708 224.105Z" stroke="black" stroke-width="100" stroke-linejoin="round" mask="url(#path-1-outside-1_85_85)"/>
<path d="M545.991 126.876C544.143 128.847 542.172 130.879 540.077 132.974C537.983 134.945 535.519 136.793 532.686 138.517C529.976 140.119 526.834 141.474 523.262 142.583C519.689 143.691 515.624 144.246 511.066 144.246L510.881 113.412H535.732C559.334 110.724 572.629 110.725 596.438 113.412H608.819L608.934 133.778C607.232 135.778 607.223 138.011 606.732 140.984C603.965 140.867 601.396 140.512 599.025 139.919C596.068 139.057 593.358 137.948 590.894 136.593C588.431 135.115 586.151 133.513 584.057 131.788C582.086 130.064 580.238 128.277 578.514 126.429C576.542 131.234 574.202 135.423 571.492 138.995C568.905 142.568 566.379 145.956 563.915 149.159C561.575 152.238 559.542 155.318 557.817 158.398C556.092 161.478 555.23 164.866 555.23 168.561C555.23 173.489 557.034 174.273 559.507 175.278C562.464 179.344 565.64 181.722 569.089 186.404C572.662 191.085 575.865 196.444 578.698 202.48C581.532 208.394 582.948 215.662 582.948 224.285H545.991V126.876Z" stroke="black" stroke-width="100" stroke-linejoin="round" mask="url(#path-1-outside-1_85_85)"/>
<path d="M457.004 225.368C454.568 225.368 452.222 225.098 449.966 224.466C447.71 223.925 445.906 223.112 444.372 221.94C442.116 220.135 440.312 217.789 438.958 214.902C437.605 212.014 436.883 208.856 436.883 205.337C436.883 202.631 437.334 199.833 438.327 196.946C441.124 189.728 446.357 184.134 454.207 180.164C462.057 176.193 469.817 174.208 477.666 174.208C478.749 174.208 480.824 174.389 483.802 174.66C484.795 174.66 485.246 174.208 485.246 173.396C485.246 170.419 484.434 167.171 482.81 163.652C481.366 160.584 479.471 157.877 477.035 155.621C474.599 153.366 471.711 152.283 468.553 152.283C466.207 152.283 463.681 153.997 460.974 157.336C458.448 160.494 456.102 163.832 453.846 167.351C452.222 169.877 450.778 172.043 449.515 173.757C448.162 175.472 447.079 176.374 446.267 176.374C445.635 176.374 445.094 175.652 444.733 174.208C444.643 174.028 444.643 173.848 444.643 173.577C443.831 170.058 443.019 165.817 442.116 160.855C441.665 158.599 441.485 157.155 441.485 156.524C444.643 153.726 448.793 151.471 454.027 149.847C459.17 148.223 464.674 147.41 470.358 147.41C480.012 147.41 488.043 149.576 494.449 153.997C501.758 159.05 505.457 166.539 505.457 176.374L505.367 178.449C504.916 186.841 504.645 194.149 504.645 200.555C504.645 210.029 505.277 217.969 506.449 224.285H473.245C474.057 223.112 474.599 221.669 474.869 220.135C474.869 219.774 474.779 219.594 474.599 219.594C474.508 219.594 474.328 219.684 474.238 219.774C474.057 219.954 473.877 220.135 473.787 220.225C473.606 220.315 473.516 220.406 473.426 220.496C471.711 222.03 469.275 223.293 466.298 224.105C463.32 224.917 460.162 225.368 457.004 225.368ZM469.817 215.804C471.35 215.804 472.794 215.353 474.238 214.36C475.681 213.458 476.764 212.375 477.486 211.022C479.291 207.503 480.915 202.991 482.268 197.487C483.622 191.984 484.253 187.562 484.253 184.404C484.253 183.231 484.073 182.058 483.622 181.066C483.17 180.073 481.997 179.622 480.103 179.532C476.945 179.532 473.967 180.795 471.26 183.322C468.553 185.938 466.388 189.096 464.764 192.796C463.14 196.585 462.328 200.285 462.328 203.984C462.328 207.683 463.32 210.932 465.305 213.638C466.659 215.082 468.192 215.804 469.817 215.804Z" stroke="black" stroke-width="100" stroke-linejoin="round" mask="url(#path-1-outside-1_85_85)"/>
<path d="M356.685 222.065C354.96 222.065 353.235 221.942 351.511 221.696C349.786 221.572 348.061 221.388 346.337 221.141L356.13 171.433C357.362 164.657 358.656 157.512 360.011 149.998C361.489 142.36 362.906 134.845 364.261 127.453C365.616 119.939 366.786 112.978 367.772 106.572C368.881 100.166 369.743 94.7457 370.359 90.3108C375.656 89.3252 381.015 88.4013 386.436 87.5389C391.856 86.6766 397.4 86.2454 403.067 86.2454C412.183 86.2454 419.39 88.1549 424.687 91.9738C429.984 95.6696 433.803 100.597 436.144 106.757C438.485 112.793 439.655 119.446 439.655 126.714C439.655 133.243 438.731 140.142 436.883 147.41C435.035 154.556 432.386 161.701 428.937 168.846C425.611 175.868 421.607 182.52 416.926 188.803C409.657 198.535 400.788 206.543 390.316 212.826C379.968 218.985 368.758 222.065 356.685 222.065ZM378.675 198.782C382.986 195.948 387.052 191.637 390.871 185.847C394.813 180.056 398.509 173.096 401.958 164.965C405.038 157.451 407.44 150.367 409.165 143.715C410.889 136.939 411.752 131.334 411.752 126.899C411.752 122.341 410.458 118.768 407.871 116.181C405.407 113.594 401.465 112.301 396.045 112.301C394.074 122.895 392.041 132.689 389.947 141.682C387.976 150.675 386.005 159.73 384.033 168.846C382.186 177.962 380.399 187.941 378.675 198.782Z" stroke="black" stroke-width="100" stroke-linejoin="round" mask="url(#path-1-outside-1_85_85)"/>
<path d="M253.666 128.206H303.928C327.828 128.575 339.777 140.894 339.777 165.163V168.859H266.601C265.615 169.968 264.753 171.077 264.014 172.185C263.398 173.171 263.09 174.341 263.09 175.696C263.09 177.667 263.767 179.515 265.123 181.24C266.478 182.841 268.141 184.505 270.112 186.229C272.206 187.831 274.424 189.617 276.764 191.588C279.228 193.436 281.446 195.592 283.417 198.056C285.511 200.396 287.174 203.168 288.406 206.371C289.761 209.451 290.439 213.024 290.439 217.089C294.874 217.089 298.015 215.734 299.863 213.024C301.834 210.313 303.066 207.172 303.559 203.599C304.051 199.904 304.051 196.208 303.559 192.512C303.189 188.693 303.004 185.675 303.004 183.457H339.962C340.332 189.74 339.531 195.222 337.56 199.904C335.589 204.585 332.755 208.465 329.06 211.545C325.487 214.625 321.237 216.966 316.309 218.567C311.381 220.046 306.146 220.723 300.602 220.6H253.85L253.666 128.206ZM302.819 165.163C302.819 162.946 303.004 159.989 303.374 156.293C303.867 152.474 303.867 148.779 303.374 145.206C303.004 141.51 301.896 138.369 300.048 135.782C298.2 133.072 295.058 131.717 290.623 131.717C290.623 136.398 289.946 140.463 288.591 143.913C287.359 147.362 285.696 150.38 283.601 152.967C281.63 155.554 279.475 157.833 277.134 159.804C274.916 161.652 272.761 163.439 270.666 165.163H302.819Z" stroke="black" stroke-width="100" stroke-linejoin="round" mask="url(#path-1-outside-1_85_85)"/>
<path d="M108.024 258.072V256.963C120.959 241.256 120.774 161.243 120.774 138.329V125.763C120.774 115.97 120.774 105.991 120.405 96.1972C119.665 79.1966 119.111 53.6958 96.382 53.6958C86.2186 53.6958 78.6423 59.7938 78.6423 70.5115C78.6423 79.0118 85.1099 86.2186 93.7949 86.2186C96.0124 86.2186 98.4146 85.6642 100.447 84.5555L101.002 86.2186C95.0884 94.3493 84.5555 97.6755 74.9465 97.6755C61.0873 97.6755 50 90.284 50 75.5008C50 55.3589 75.1313 50 91.0231 50C109.317 50 127.426 53.1414 145.721 53.1414C162.352 53.1414 178.983 50.7392 195.614 50.7392C226.288 50.7392 243.843 72.729 243.843 102.295C243.843 125.579 231.463 153.112 206.516 158.286C217.973 185.82 250.311 265.279 285.051 265.279C294.845 265.279 302.421 258.072 302.421 248.278C302.421 237.93 293.921 233.31 284.497 234.05V233.126C289.856 229.43 296.508 227.397 302.976 227.397C314.987 227.397 328.846 232.941 328.846 246.985C328.846 262.507 312.954 270.638 299.28 270.638C286.53 270.638 274.334 266.757 261.953 263.801C248.094 260.474 233.865 258.257 219.636 258.257C214.092 258.257 208.734 258.626 203.19 259.181C202.82 241.072 175.656 160.504 155.514 160.504C155.699 179.722 156.069 243.659 168.265 256.963V258.072C158.101 256.963 147.938 256.224 137.775 256.224C127.796 256.224 117.817 256.963 108.024 258.072ZM155.514 155.145V155.699C157.177 155.884 158.656 155.884 160.319 155.884C190.255 155.884 205.407 132.231 205.407 104.328C205.407 85.849 196.537 56.2828 173.624 56.2828C160.319 56.2828 156.254 64.5983 156.254 76.6096C156.254 102.85 155.514 128.905 155.514 155.145Z" stroke="black" stroke-width="100" stroke-linejoin="round" mask="url(#path-1-outside-1_85_85)"/>
</g>
<mask id="path-2-outside-2_85_85" maskUnits="userSpaceOnUse" x="9" y="9" width="963" height="303" fill="black">
<rect fill="white" x="9" y="9" width="963" height="303"/>
<path d="M930.18 208.768C931.658 208.028 922.049 218.931 909.853 222.257C904.864 223.551 893.037 225.953 884.722 221.518C881.95 220.409 879.363 218.377 877.33 215.235C857.558 186.408 880.472 152.777 873.45 144.276C872.526 143.722 871.417 143.168 869.939 142.983C860.884 142.428 852.753 150.005 847.949 156.288C847.949 173.103 847.949 191.767 847.949 204.887C847.949 206.735 847.949 208.768 847.949 210.431C847.949 214.496 852.753 221.703 855.34 222.072C855.34 222.442 855.34 224.105 855.34 224.105H805.632C805.632 224.105 805.632 222.442 805.632 222.072C807.85 221.703 812.285 215.05 812.839 211.17C812.839 190.658 812.839 151.298 812.839 131.341C810.621 116.188 802.491 115.449 802.491 115.449V113.417C829.1 113.417 842.036 99.3726 845.916 95.1224C847.025 95.1224 847.949 95.1224 847.949 95.1224V120.438C847.949 124.689 847.949 131.526 847.949 139.841C847.949 142.983 847.949 146.309 847.949 149.635C854.786 141.504 867.167 132.08 879.917 130.787C879.917 130.787 916.875 128.754 909.114 161.277C901.907 191.397 905.418 205.441 918.169 210.061C921.31 210.615 925.191 210.431 930.18 208.768Z"/>
<path d="M796.947 188.256C798.056 183.452 803.045 185.115 802.491 188.995C800.273 209.137 781.055 224.105 759.62 224.105C732.271 224.105 709.912 203.039 709.912 176.984C709.912 151.113 732.271 130.048 759.62 130.048C783.827 130.048 808.589 150.744 795.284 170.147C785.675 183.821 752.783 190.473 759.25 167.375C765.903 143.168 758.881 135.591 748.532 138.548C737.63 141.689 733.749 161.462 740.587 182.528C751.304 215.235 791.219 210.246 796.947 188.256Z"/>
<path d="M663.708 224.105C650.444 224.105 640.429 221.488 633.571 216.255C626.624 211.112 622.744 206.059 621.751 201.187C620.759 196.315 620.217 192.705 620.217 190.45C620.217 185.667 621.3 181.066 623.466 176.735C628.428 166.9 636.82 161.937 648.549 161.937C654.234 161.937 660.64 163.381 667.768 166.178C668.219 166.359 668.58 166.449 668.851 166.449C669.482 166.449 669.843 166.178 669.843 165.727C669.843 165.366 669.392 164.825 668.49 164.193C665.693 162.479 661.813 161.125 656.85 160.133C651.798 159.14 646.745 158.418 641.782 158.148C634.113 157.516 628.609 155.17 625.27 151.11C621.932 147.05 620.217 142.899 620.217 138.658C620.217 131.169 624.278 124.763 632.398 119.439C639.165 115.018 649.091 112.672 662.354 112.221H663.257C668.039 112.221 672.189 112.672 675.889 113.575C679.588 114.477 682.836 115.469 685.814 116.552C690.596 118.267 694.115 119.169 696.28 119.169C697.544 119.169 698.807 118.988 699.98 118.627C696.1 128.372 691.949 134.869 687.618 138.027C683.197 141.185 679.047 142.809 675.077 142.809C673.994 142.809 672.911 142.719 671.828 142.538C666.776 141.636 661.903 139.38 657.302 135.681C652.7 131.981 648.64 127.831 645.121 123.049C644.128 121.785 643.406 121.154 642.865 121.154C642.594 121.154 642.414 121.244 642.323 121.425C642.053 121.785 641.872 122.327 641.872 123.139C641.872 123.68 641.963 124.312 642.053 125.034C644.128 133.696 647.467 140.192 651.888 144.523C656.309 148.854 660.82 152.283 665.603 154.899C668.039 156.343 670.385 157.787 672.46 159.321C674.535 160.855 676.34 162.659 677.874 164.734C678.595 165.817 678.956 166.81 678.956 167.712C678.956 168.344 678.776 168.975 678.325 169.607C677.513 170.78 676.43 171.411 674.896 171.411H674.265C672.64 171.231 671.107 171.141 669.663 171.141C663.257 171.141 658.204 172.945 654.324 176.464C649.542 180.885 646.925 185.036 646.294 189.096C645.662 193.156 645.301 196.044 645.301 197.758C645.301 202.179 646.294 206.24 648.279 209.939C650.985 215.082 655.587 217.789 661.993 218.15C667.227 218.06 671.197 215.804 673.994 211.473C676.701 207.232 678.415 202.631 679.227 197.758C680.039 192.886 680.4 188.825 680.4 185.487L680.31 181.968C680.31 181.066 680.671 180.615 681.302 180.615C681.663 180.615 682.385 180.885 683.378 181.427C688.34 184.224 692.852 186.75 696.822 189.186C699.438 190.72 701.153 191.893 702.145 192.615C700.431 199.473 697.453 205.247 693.122 209.939C688.701 214.721 683.919 218.24 678.595 220.586C673.272 222.932 668.309 224.105 663.708 224.105Z"/>
<path d="M545.991 126.876C544.143 128.847 542.172 130.879 540.077 132.974C537.983 134.945 535.519 136.793 532.686 138.517C529.976 140.119 526.834 141.474 523.262 142.583C519.689 143.691 515.624 144.246 511.066 144.246L510.881 113.412H535.732C559.334 110.724 572.629 110.725 596.438 113.412H608.819L608.934 133.778C607.232 135.778 607.223 138.011 606.732 140.984C603.965 140.867 601.396 140.512 599.025 139.919C596.068 139.057 593.358 137.948 590.894 136.593C588.431 135.115 586.151 133.513 584.057 131.788C582.086 130.064 580.238 128.277 578.514 126.429C576.542 131.234 574.202 135.423 571.492 138.995C568.905 142.568 566.379 145.956 563.915 149.159C561.575 152.238 559.542 155.318 557.817 158.398C556.092 161.478 555.23 164.866 555.23 168.561C555.23 173.489 557.034 174.273 559.507 175.278C562.464 179.344 565.64 181.722 569.089 186.404C572.662 191.085 575.865 196.444 578.698 202.48C581.532 208.394 582.948 215.662 582.948 224.285H545.991V126.876Z"/>
<path d="M457.004 225.368C454.568 225.368 452.222 225.098 449.966 224.466C447.71 223.925 445.906 223.112 444.372 221.94C442.116 220.135 440.312 217.789 438.958 214.902C437.605 212.014 436.883 208.856 436.883 205.337C436.883 202.631 437.334 199.833 438.327 196.946C441.124 189.728 446.357 184.134 454.207 180.164C462.057 176.193 469.817 174.208 477.666 174.208C478.749 174.208 480.824 174.389 483.802 174.66C484.795 174.66 485.246 174.208 485.246 173.396C485.246 170.419 484.434 167.171 482.81 163.652C481.366 160.584 479.471 157.877 477.035 155.621C474.599 153.366 471.711 152.283 468.553 152.283C466.207 152.283 463.681 153.997 460.974 157.336C458.448 160.494 456.102 163.832 453.846 167.351C452.222 169.877 450.778 172.043 449.515 173.757C448.162 175.472 447.079 176.374 446.267 176.374C445.635 176.374 445.094 175.652 444.733 174.208C444.643 174.028 444.643 173.848 444.643 173.577C443.831 170.058 443.019 165.817 442.116 160.855C441.665 158.599 441.485 157.155 441.485 156.524C444.643 153.726 448.793 151.471 454.027 149.847C459.17 148.223 464.674 147.41 470.358 147.41C480.012 147.41 488.043 149.576 494.449 153.997C501.758 159.05 505.457 166.539 505.457 176.374L505.367 178.449C504.916 186.841 504.645 194.149 504.645 200.555C504.645 210.029 505.277 217.969 506.449 224.285H473.245C474.057 223.112 474.599 221.669 474.869 220.135C474.869 219.774 474.779 219.594 474.599 219.594C474.508 219.594 474.328 219.684 474.238 219.774C474.057 219.954 473.877 220.135 473.787 220.225C473.606 220.315 473.516 220.406 473.426 220.496C471.711 222.03 469.275 223.293 466.298 224.105C463.32 224.917 460.162 225.368 457.004 225.368ZM469.817 215.804C471.35 215.804 472.794 215.353 474.238 214.36C475.681 213.458 476.764 212.375 477.486 211.022C479.291 207.503 480.915 202.991 482.268 197.487C483.622 191.984 484.253 187.562 484.253 184.404C484.253 183.231 484.073 182.058 483.622 181.066C483.17 180.073 481.997 179.622 480.103 179.532C476.945 179.532 473.967 180.795 471.26 183.322C468.553 185.938 466.388 189.096 464.764 192.796C463.14 196.585 462.328 200.285 462.328 203.984C462.328 207.683 463.32 210.932 465.305 213.638C466.659 215.082 468.192 215.804 469.817 215.804Z"/>
<path d="M356.685 222.065C354.96 222.065 353.235 221.942 351.511 221.696C349.786 221.572 348.061 221.388 346.337 221.141L356.13 171.433C357.362 164.657 358.656 157.512 360.011 149.998C361.489 142.36 362.906 134.845 364.261 127.453C365.616 119.939 366.786 112.978 367.772 106.572C368.881 100.166 369.743 94.7457 370.359 90.3108C375.656 89.3252 381.015 88.4013 386.436 87.5389C391.856 86.6766 397.4 86.2454 403.067 86.2454C412.183 86.2454 419.39 88.1549 424.687 91.9738C429.984 95.6696 433.803 100.597 436.144 106.757C438.485 112.793 439.655 119.446 439.655 126.714C439.655 133.243 438.731 140.142 436.883 147.41C435.035 154.556 432.386 161.701 428.937 168.846C425.611 175.868 421.607 182.52 416.926 188.803C409.657 198.535 400.788 206.543 390.316 212.826C379.968 218.985 368.758 222.065 356.685 222.065ZM378.675 198.782C382.986 195.948 387.052 191.637 390.871 185.847C394.813 180.056 398.509 173.096 401.958 164.965C405.038 157.451 407.44 150.367 409.165 143.715C410.889 136.939 411.752 131.334 411.752 126.899C411.752 122.341 410.458 118.768 407.871 116.181C405.407 113.594 401.465 112.301 396.045 112.301C394.074 122.895 392.041 132.689 389.947 141.682C387.976 150.675 386.005 159.73 384.033 168.846C382.186 177.962 380.399 187.941 378.675 198.782Z"/>
<path d="M253.666 128.206H303.928C327.828 128.575 339.777 140.894 339.777 165.163V168.859H266.601C265.615 169.968 264.753 171.077 264.014 172.185C263.398 173.171 263.09 174.341 263.09 175.696C263.09 177.667 263.767 179.515 265.123 181.24C266.478 182.841 268.141 184.505 270.112 186.229C272.206 187.831 274.424 189.617 276.764 191.588C279.228 193.436 281.446 195.592 283.417 198.056C285.511 200.396 287.174 203.168 288.406 206.371C289.761 209.451 290.439 213.024 290.439 217.089C294.874 217.089 298.015 215.734 299.863 213.024C301.834 210.313 303.066 207.172 303.559 203.599C304.051 199.904 304.051 196.208 303.559 192.512C303.189 188.693 303.004 185.675 303.004 183.457H339.962C340.332 189.74 339.531 195.222 337.56 199.904C335.589 204.585 332.755 208.465 329.06 211.545C325.487 214.625 321.237 216.966 316.309 218.567C311.381 220.046 306.146 220.723 300.602 220.6H253.85L253.666 128.206ZM302.819 165.163C302.819 162.946 303.004 159.989 303.374 156.293C303.867 152.474 303.867 148.779 303.374 145.206C303.004 141.51 301.896 138.369 300.048 135.782C298.2 133.072 295.058 131.717 290.623 131.717C290.623 136.398 289.946 140.463 288.591 143.913C287.359 147.362 285.696 150.38 283.601 152.967C281.63 155.554 279.475 157.833 277.134 159.804C274.916 161.652 272.761 163.439 270.666 165.163H302.819Z"/>
<path d="M108.024 258.072V256.963C120.959 241.256 120.774 161.243 120.774 138.329V125.763C120.774 115.97 120.774 105.991 120.405 96.1972C119.665 79.1966 119.111 53.6958 96.382 53.6958C86.2186 53.6958 78.6423 59.7938 78.6423 70.5115C78.6423 79.0118 85.1099 86.2186 93.7949 86.2186C96.0124 86.2186 98.4146 85.6642 100.447 84.5555L101.002 86.2186C95.0884 94.3493 84.5555 97.6755 74.9465 97.6755C61.0873 97.6755 50 90.284 50 75.5008C50 55.3589 75.1313 50 91.0231 50C109.317 50 127.426 53.1414 145.721 53.1414C162.352 53.1414 178.983 50.7392 195.614 50.7392C226.288 50.7392 243.843 72.729 243.843 102.295C243.843 125.579 231.463 153.112 206.516 158.286C217.973 185.82 250.311 265.279 285.051 265.279C294.845 265.279 302.421 258.072 302.421 248.278C302.421 237.93 293.921 233.31 284.497 234.05V233.126C289.856 229.43 296.508 227.397 302.976 227.397C314.987 227.397 328.846 232.941 328.846 246.985C328.846 262.507 312.954 270.638 299.28 270.638C286.53 270.638 274.334 266.757 261.953 263.801C248.094 260.474 233.865 258.257 219.636 258.257C214.092 258.257 208.734 258.626 203.19 259.181C202.82 241.072 175.656 160.504 155.514 160.504C155.699 179.722 156.069 243.659 168.265 256.963V258.072C158.101 256.963 147.938 256.224 137.775 256.224C127.796 256.224 117.817 256.963 108.024 258.072ZM155.514 155.145V155.699C157.177 155.884 158.656 155.884 160.319 155.884C190.255 155.884 205.407 132.231 205.407 104.328C205.407 85.849 196.537 56.2828 173.624 56.2828C160.319 56.2828 156.254 64.5983 156.254 76.6096C156.254 102.85 155.514 128.905 155.514 155.145Z"/>
</mask>
<path d="M930.18 208.768C931.658 208.028 922.049 218.931 909.853 222.257C904.864 223.551 893.037 225.953 884.722 221.518C881.95 220.409 879.363 218.377 877.33 215.235C857.558 186.408 880.472 152.777 873.45 144.276C872.526 143.722 871.417 143.168 869.939 142.983C860.884 142.428 852.753 150.005 847.949 156.288C847.949 173.103 847.949 191.767 847.949 204.887C847.949 206.735 847.949 208.768 847.949 210.431C847.949 214.496 852.753 221.703 855.34 222.072C855.34 222.442 855.34 224.105 855.34 224.105H805.632C805.632 224.105 805.632 222.442 805.632 222.072C807.85 221.703 812.285 215.05 812.839 211.17C812.839 190.658 812.839 151.298 812.839 131.341C810.621 116.188 802.491 115.449 802.491 115.449V113.417C829.1 113.417 842.036 99.3726 845.916 95.1224C847.025 95.1224 847.949 95.1224 847.949 95.1224V120.438C847.949 124.689 847.949 131.526 847.949 139.841C847.949 142.983 847.949 146.309 847.949 149.635C854.786 141.504 867.167 132.08 879.917 130.787C879.917 130.787 916.875 128.754 909.114 161.277C901.907 191.397 905.418 205.441 918.169 210.061C921.31 210.615 925.191 210.431 930.18 208.768Z" fill="#E61425"/>
<path d="M796.947 188.256C798.056 183.452 803.045 185.115 802.491 188.995C800.273 209.137 781.055 224.105 759.62 224.105C732.271 224.105 709.912 203.039 709.912 176.984C709.912 151.113 732.271 130.048 759.62 130.048C783.827 130.048 808.589 150.744 795.284 170.147C785.675 183.821 752.783 190.473 759.25 167.375C765.903 143.168 758.881 135.591 748.532 138.548C737.63 141.689 733.749 161.462 740.587 182.528C751.304 215.235 791.219 210.246 796.947 188.256Z" fill="#F2B505"/>
<path d="M663.708 224.105C650.444 224.105 640.429 221.488 633.571 216.255C626.624 211.112 622.744 206.059 621.751 201.187C620.759 196.315 620.217 192.705 620.217 190.45C620.217 185.667 621.3 181.066 623.466 176.735C628.428 166.9 636.82 161.937 648.549 161.937C654.234 161.937 660.64 163.381 667.768 166.178C668.219 166.359 668.58 166.449 668.851 166.449C669.482 166.449 669.843 166.178 669.843 165.727C669.843 165.366 669.392 164.825 668.49 164.193C665.693 162.479 661.813 161.125 656.85 160.133C651.798 159.14 646.745 158.418 641.782 158.148C634.113 157.516 628.609 155.17 625.27 151.11C621.932 147.05 620.217 142.899 620.217 138.658C620.217 131.169 624.278 124.763 632.398 119.439C639.165 115.018 649.091 112.672 662.354 112.221H663.257C668.039 112.221 672.189 112.672 675.889 113.575C679.588 114.477 682.836 115.469 685.814 116.552C690.596 118.267 694.115 119.169 696.28 119.169C697.544 119.169 698.807 118.988 699.98 118.627C696.1 128.372 691.949 134.869 687.618 138.027C683.197 141.185 679.047 142.809 675.077 142.809C673.994 142.809 672.911 142.719 671.828 142.538C666.776 141.636 661.903 139.38 657.302 135.681C652.7 131.981 648.64 127.831 645.121 123.049C644.128 121.785 643.406 121.154 642.865 121.154C642.594 121.154 642.414 121.244 642.323 121.425C642.053 121.785 641.872 122.327 641.872 123.139C641.872 123.68 641.963 124.312 642.053 125.034C644.128 133.696 647.467 140.192 651.888 144.523C656.309 148.854 660.82 152.283 665.603 154.899C668.039 156.343 670.385 157.787 672.46 159.321C674.535 160.855 676.34 162.659 677.874 164.734C678.595 165.817 678.956 166.81 678.956 167.712C678.956 168.344 678.776 168.975 678.325 169.607C677.513 170.78 676.43 171.411 674.896 171.411H674.265C672.64 171.231 671.107 171.141 669.663 171.141C663.257 171.141 658.204 172.945 654.324 176.464C649.542 180.885 646.925 185.036 646.294 189.096C645.662 193.156 645.301 196.044 645.301 197.758C645.301 202.179 646.294 206.24 648.279 209.939C650.985 215.082 655.587 217.789 661.993 218.15C667.227 218.06 671.197 215.804 673.994 211.473C676.701 207.232 678.415 202.631 679.227 197.758C680.039 192.886 680.4 188.825 680.4 185.487L680.31 181.968C680.31 181.066 680.671 180.615 681.302 180.615C681.663 180.615 682.385 180.885 683.378 181.427C688.34 184.224 692.852 186.75 696.822 189.186C699.438 190.72 701.153 191.893 702.145 192.615C700.431 199.473 697.453 205.247 693.122 209.939C688.701 214.721 683.919 218.24 678.595 220.586C673.272 222.932 668.309 224.105 663.708 224.105Z" fill="#F55FC0"/>
<path d="M545.991 126.876C544.143 128.847 542.172 130.879 540.077 132.974C537.983 134.945 535.519 136.793 532.686 138.517C529.976 140.119 526.834 141.474 523.262 142.583C519.689 143.691 515.624 144.246 511.066 144.246L510.881 113.412H535.732C559.334 110.724 572.629 110.725 596.438 113.412H608.819L608.934 133.778C607.232 135.778 607.223 138.011 606.732 140.984C603.965 140.867 601.396 140.512 599.025 139.919C596.068 139.057 593.358 137.948 590.894 136.593C588.431 135.115 586.151 133.513 584.057 131.788C582.086 130.064 580.238 128.277 578.514 126.429C576.542 131.234 574.202 135.423 571.492 138.995C568.905 142.568 566.379 145.956 563.915 149.159C561.575 152.238 559.542 155.318 557.817 158.398C556.092 161.478 555.23 164.866 555.23 168.561C555.23 173.489 557.034 174.273 559.507 175.278C562.464 179.344 565.64 181.722 569.089 186.404C572.662 191.085 575.865 196.444 578.698 202.48C581.532 208.394 582.948 215.662 582.948 224.285H545.991V126.876Z" fill="#0265DE"/>
<path d="M457.004 225.368C454.568 225.368 452.222 225.098 449.966 224.466C447.71 223.925 445.906 223.112 444.372 221.94C442.116 220.135 440.312 217.789 438.958 214.902C437.605 212.014 436.883 208.856 436.883 205.337C436.883 202.631 437.334 199.833 438.327 196.946C441.124 189.728 446.357 184.134 454.207 180.164C462.057 176.193 469.817 174.208 477.666 174.208C478.749 174.208 480.824 174.389 483.802 174.66C484.795 174.66 485.246 174.208 485.246 173.396C485.246 170.419 484.434 167.171 482.81 163.652C481.366 160.584 479.471 157.877 477.035 155.621C474.599 153.366 471.711 152.283 468.553 152.283C466.207 152.283 463.681 153.997 460.974 157.336C458.448 160.494 456.102 163.832 453.846 167.351C452.222 169.877 450.778 172.043 449.515 173.757C448.162 175.472 447.079 176.374 446.267 176.374C445.635 176.374 445.094 175.652 444.733 174.208C444.643 174.028 444.643 173.848 444.643 173.577C443.831 170.058 443.019 165.817 442.116 160.855C441.665 158.599 441.485 157.155 441.485 156.524C444.643 153.726 448.793 151.471 454.027 149.847C459.17 148.223 464.674 147.41 470.358 147.41C480.012 147.41 488.043 149.576 494.449 153.997C501.758 159.05 505.457 166.539 505.457 176.374L505.367 178.449C504.916 186.841 504.645 194.149 504.645 200.555C504.645 210.029 505.277 217.969 506.449 224.285H473.245C474.057 223.112 474.599 221.669 474.869 220.135C474.869 219.774 474.779 219.594 474.599 219.594C474.508 219.594 474.328 219.684 474.238 219.774C474.057 219.954 473.877 220.135 473.787 220.225C473.606 220.315 473.516 220.406 473.426 220.496C471.711 222.03 469.275 223.293 466.298 224.105C463.32 224.917 460.162 225.368 457.004 225.368ZM469.817 215.804C471.35 215.804 472.794 215.353 474.238 214.36C475.681 213.458 476.764 212.375 477.486 211.022C479.291 207.503 480.915 202.991 482.268 197.487C483.622 191.984 484.253 187.562 484.253 184.404C484.253 183.231 484.073 182.058 483.622 181.066C483.17 180.073 481.997 179.622 480.103 179.532C476.945 179.532 473.967 180.795 471.26 183.322C468.553 185.938 466.388 189.096 464.764 192.796C463.14 196.585 462.328 200.285 462.328 203.984C462.328 207.683 463.32 210.932 465.305 213.638C466.659 215.082 468.192 215.804 469.817 215.804Z" fill="#0265DE"/>
<path d="M356.685 222.065C354.96 222.065 353.235 221.942 351.511 221.696C349.786 221.572 348.061 221.388 346.337 221.141L356.13 171.433C357.362 164.657 358.656 157.512 360.011 149.998C361.489 142.36 362.906 134.845 364.261 127.453C365.616 119.939 366.786 112.978 367.772 106.572C368.881 100.166 369.743 94.7457 370.359 90.3108C375.656 89.3252 381.015 88.4013 386.436 87.5389C391.856 86.6766 397.4 86.2454 403.067 86.2454C412.183 86.2454 419.39 88.1549 424.687 91.9738C429.984 95.6696 433.803 100.597 436.144 106.757C438.485 112.793 439.655 119.446 439.655 126.714C439.655 133.243 438.731 140.142 436.883 147.41C435.035 154.556 432.386 161.701 428.937 168.846C425.611 175.868 421.607 182.52 416.926 188.803C409.657 198.535 400.788 206.543 390.316 212.826C379.968 218.985 368.758 222.065 356.685 222.065ZM378.675 198.782C382.986 195.948 387.052 191.637 390.871 185.847C394.813 180.056 398.509 173.096 401.958 164.965C405.038 157.451 407.44 150.367 409.165 143.715C410.889 136.939 411.752 131.334 411.752 126.899C411.752 122.341 410.458 118.768 407.871 116.181C405.407 113.594 401.465 112.301 396.045 112.301C394.074 122.895 392.041 132.689 389.947 141.682C387.976 150.675 386.005 159.73 384.033 168.846C382.186 177.962 380.399 187.941 378.675 198.782Z" fill="#0DA144"/>
<path d="M253.666 128.206H303.928C327.828 128.575 339.777 140.894 339.777 165.163V168.859H266.601C265.615 169.968 264.753 171.077 264.014 172.185C263.398 173.171 263.09 174.341 263.09 175.696C263.09 177.667 263.767 179.515 265.123 181.24C266.478 182.841 268.141 184.505 270.112 186.229C272.206 187.831 274.424 189.617 276.764 191.588C279.228 193.436 281.446 195.592 283.417 198.056C285.511 200.396 287.174 203.168 288.406 206.371C289.761 209.451 290.439 213.024 290.439 217.089C294.874 217.089 298.015 215.734 299.863 213.024C301.834 210.313 303.066 207.172 303.559 203.599C304.051 199.904 304.051 196.208 303.559 192.512C303.189 188.693 303.004 185.675 303.004 183.457H339.962C340.332 189.74 339.531 195.222 337.56 199.904C335.589 204.585 332.755 208.465 329.06 211.545C325.487 214.625 321.237 216.966 316.309 218.567C311.381 220.046 306.146 220.723 300.602 220.6H253.85L253.666 128.206ZM302.819 165.163C302.819 162.946 303.004 159.989 303.374 156.293C303.867 152.474 303.867 148.779 303.374 145.206C303.004 141.51 301.896 138.369 300.048 135.782C298.2 133.072 295.058 131.717 290.623 131.717C290.623 136.398 289.946 140.463 288.591 143.913C287.359 147.362 285.696 150.38 283.601 152.967C281.63 155.554 279.475 157.833 277.134 159.804C274.916 161.652 272.761 163.439 270.666 165.163H302.819Z" fill="#F55FC0"/>
<path d="M108.024 258.072V256.963C120.959 241.256 120.774 161.243 120.774 138.329V125.763C120.774 115.97 120.774 105.991 120.405 96.1972C119.665 79.1966 119.111 53.6958 96.382 53.6958C86.2186 53.6958 78.6423 59.7938 78.6423 70.5115C78.6423 79.0118 85.1099 86.2186 93.7949 86.2186C96.0124 86.2186 98.4146 85.6642 100.447 84.5555L101.002 86.2186C95.0884 94.3493 84.5555 97.6755 74.9465 97.6755C61.0873 97.6755 50 90.284 50 75.5008C50 55.3589 75.1313 50 91.0231 50C109.317 50 127.426 53.1414 145.721 53.1414C162.352 53.1414 178.983 50.7392 195.614 50.7392C226.288 50.7392 243.843 72.729 243.843 102.295C243.843 125.579 231.463 153.112 206.516 158.286C217.973 185.82 250.311 265.279 285.051 265.279C294.845 265.279 302.421 258.072 302.421 248.278C302.421 237.93 293.921 233.31 284.497 234.05V233.126C289.856 229.43 296.508 227.397 302.976 227.397C314.987 227.397 328.846 232.941 328.846 246.985C328.846 262.507 312.954 270.638 299.28 270.638C286.53 270.638 274.334 266.757 261.953 263.801C248.094 260.474 233.865 258.257 219.636 258.257C214.092 258.257 208.734 258.626 203.19 259.181C202.82 241.072 175.656 160.504 155.514 160.504C155.699 179.722 156.069 243.659 168.265 256.963V258.072C158.101 256.963 147.938 256.224 137.775 256.224C127.796 256.224 117.817 256.963 108.024 258.072ZM155.514 155.145V155.699C157.177 155.884 158.656 155.884 160.319 155.884C190.255 155.884 205.407 132.231 205.407 104.328C205.407 85.849 196.537 56.2828 173.624 56.2828C160.319 56.2828 156.254 64.5983 156.254 76.6096C156.254 102.85 155.514 128.905 155.514 155.145Z" fill="#F2B505"/>
<path d="M930.18 208.768C931.658 208.028 922.049 218.931 909.853 222.257C904.864 223.551 893.037 225.953 884.722 221.518C881.95 220.409 879.363 218.377 877.33 215.235C857.558 186.408 880.472 152.777 873.45 144.276C872.526 143.722 871.417 143.168 869.939 142.983C860.884 142.428 852.753 150.005 847.949 156.288C847.949 173.103 847.949 191.767 847.949 204.887C847.949 206.735 847.949 208.768 847.949 210.431C847.949 214.496 852.753 221.703 855.34 222.072C855.34 222.442 855.34 224.105 855.34 224.105H805.632C805.632 224.105 805.632 222.442 805.632 222.072C807.85 221.703 812.285 215.05 812.839 211.17C812.839 190.658 812.839 151.298 812.839 131.341C810.621 116.188 802.491 115.449 802.491 115.449V113.417C829.1 113.417 842.036 99.3726 845.916 95.1224C847.025 95.1224 847.949 95.1224 847.949 95.1224V120.438C847.949 124.689 847.949 131.526 847.949 139.841C847.949 142.983 847.949 146.309 847.949 149.635C854.786 141.504 867.167 132.08 879.917 130.787C879.917 130.787 916.875 128.754 909.114 161.277C901.907 191.397 905.418 205.441 918.169 210.061C921.31 210.615 925.191 210.431 930.18 208.768Z" stroke="white" stroke-width="82" stroke-linejoin="round" mask="url(#path-2-outside-2_85_85)"/>
<path d="M796.947 188.256C798.056 183.452 803.045 185.115 802.491 188.995C800.273 209.137 781.055 224.105 759.62 224.105C732.271 224.105 709.912 203.039 709.912 176.984C709.912 151.113 732.271 130.048 759.62 130.048C783.827 130.048 808.589 150.744 795.284 170.147C785.675 183.821 752.783 190.473 759.25 167.375C765.903 143.168 758.881 135.591 748.532 138.548C737.63 141.689 733.749 161.462 740.587 182.528C751.304 215.235 791.219 210.246 796.947 188.256Z" stroke="white" stroke-width="82" stroke-linejoin="round" mask="url(#path-2-outside-2_85_85)"/>
<path d="M663.708 224.105C650.444 224.105 640.429 221.488 633.571 216.255C626.624 211.112 622.744 206.059 621.751 201.187C620.759 196.315 620.217 192.705 620.217 190.45C620.217 185.667 621.3 181.066 623.466 176.735C628.428 166.9 636.82 161.937 648.549 161.937C654.234 161.937 660.64 163.381 667.768 166.178C668.219 166.359 668.58 166.449 668.851 166.449C669.482 166.449 669.843 166.178 669.843 165.727C669.843 165.366 669.392 164.825 668.49 164.193C665.693 162.479 661.813 161.125 656.85 160.133C651.798 159.14 646.745 158.418 641.782 158.148C634.113 157.516 628.609 155.17 625.27 151.11C621.932 147.05 620.217 142.899 620.217 138.658C620.217 131.169 624.278 124.763 632.398 119.439C639.165 115.018 649.091 112.672 662.354 112.221H663.257C668.039 112.221 672.189 112.672 675.889 113.575C679.588 114.477 682.836 115.469 685.814 116.552C690.596 118.267 694.115 119.169 696.28 119.169C697.544 119.169 698.807 118.988 699.98 118.627C696.1 128.372 691.949 134.869 687.618 138.027C683.197 141.185 679.047 142.809 675.077 142.809C673.994 142.809 672.911 142.719 671.828 142.538C666.776 141.636 661.903 139.38 657.302 135.681C652.7 131.981 648.64 127.831 645.121 123.049C644.128 121.785 643.406 121.154 642.865 121.154C642.594 121.154 642.414 121.244 642.323 121.425C642.053 121.785 641.872 122.327 641.872 123.139C641.872 123.68 641.963 124.312 642.053 125.034C644.128 133.696 647.467 140.192 651.888 144.523C656.309 148.854 660.82 152.283 665.603 154.899C668.039 156.343 670.385 157.787 672.46 159.321C674.535 160.855 676.34 162.659 677.874 164.734C678.595 165.817 678.956 166.81 678.956 167.712C678.956 168.344 678.776 168.975 678.325 169.607C677.513 170.78 676.43 171.411 674.896 171.411H674.265C672.64 171.231 671.107 171.141 669.663 171.141C663.257 171.141 658.204 172.945 654.324 176.464C649.542 180.885 646.925 185.036 646.294 189.096C645.662 193.156 645.301 196.044 645.301 197.758C645.301 202.179 646.294 206.24 648.279 209.939C650.985 215.082 655.587 217.789 661.993 218.15C667.227 218.06 671.197 215.804 673.994 211.473C676.701 207.232 678.415 202.631 679.227 197.758C680.039 192.886 680.4 188.825 680.4 185.487L680.31 181.968C680.31 181.066 680.671 180.615 681.302 180.615C681.663 180.615 682.385 180.885 683.378 181.427C688.34 184.224 692.852 186.75 696.822 189.186C699.438 190.72 701.153 191.893 702.145 192.615C700.431 199.473 697.453 205.247 693.122 209.939C688.701 214.721 683.919 218.24 678.595 220.586C673.272 222.932 668.309 224.105 663.708 224.105Z" stroke="white" stroke-width="82" stroke-linejoin="round" mask="url(#path-2-outside-2_85_85)"/>
<path d="M545.991 126.876C544.143 128.847 542.172 130.879 540.077 132.974C537.983 134.945 535.519 136.793 532.686 138.517C529.976 140.119 526.834 141.474 523.262 142.583C519.689 143.691 515.624 144.246 511.066 144.246L510.881 113.412H535.732C559.334 110.724 572.629 110.725 596.438 113.412H608.819L608.934 133.778C607.232 135.778 607.223 138.011 606.732 140.984C603.965 140.867 601.396 140.512 599.025 139.919C596.068 139.057 593.358 137.948 590.894 136.593C588.431 135.115 586.151 133.513 584.057 131.788C582.086 130.064 580.238 128.277 578.514 126.429C576.542 131.234 574.202 135.423 571.492 138.995C568.905 142.568 566.379 145.956 563.915 149.159C561.575 152.238 559.542 155.318 557.817 158.398C556.092 161.478 555.23 164.866 555.23 168.561C555.23 173.489 557.034 174.273 559.507 175.278C562.464 179.344 565.64 181.722 569.089 186.404C572.662 191.085 575.865 196.444 578.698 202.48C581.532 208.394 582.948 215.662 582.948 224.285H545.991V126.876Z" stroke="white" stroke-width="82" stroke-linejoin="round" mask="url(#path-2-outside-2_85_85)"/>
<path d="M457.004 225.368C454.568 225.368 452.222 225.098 449.966 224.466C447.71 223.925 445.906 223.112 444.372 221.94C442.116 220.135 440.312 217.789 438.958 214.902C437.605 212.014 436.883 208.856 436.883 205.337C436.883 202.631 437.334 199.833 438.327 196.946C441.124 189.728 446.357 184.134 454.207 180.164C462.057 176.193 469.817 174.208 477.666 174.208C478.749 174.208 480.824 174.389 483.802 174.66C484.795 174.66 485.246 174.208 485.246 173.396C485.246 170.419 484.434 167.171 482.81 163.652C481.366 160.584 479.471 157.877 477.035 155.621C474.599 153.366 471.711 152.283 468.553 152.283C466.207 152.283 463.681 153.997 460.974 157.336C458.448 160.494 456.102 163.832 453.846 167.351C452.222 169.877 450.778 172.043 449.515 173.757C448.162 175.472 447.079 176.374 446.267 176.374C445.635 176.374 445.094 175.652 444.733 174.208C444.643 174.028 444.643 173.848 444.643 173.577C443.831 170.058 443.019 165.817 442.116 160.855C441.665 158.599 441.485 157.155 441.485 156.524C444.643 153.726 448.793 151.471 454.027 149.847C459.17 148.223 464.674 147.41 470.358 147.41C480.012 147.41 488.043 149.576 494.449 153.997C501.758 159.05 505.457 166.539 505.457 176.374L505.367 178.449C504.916 186.841 504.645 194.149 504.645 200.555C504.645 210.029 505.277 217.969 506.449 224.285H473.245C474.057 223.112 474.599 221.669 474.869 220.135C474.869 219.774 474.779 219.594 474.599 219.594C474.508 219.594 474.328 219.684 474.238 219.774C474.057 219.954 473.877 220.135 473.787 220.225C473.606 220.315 473.516 220.406 473.426 220.496C471.711 222.03 469.275 223.293 466.298 224.105C463.32 224.917 460.162 225.368 457.004 225.368ZM469.817 215.804C471.35 215.804 472.794 215.353 474.238 214.36C475.681 213.458 476.764 212.375 477.486 211.022C479.291 207.503 480.915 202.991 482.268 197.487C483.622 191.984 484.253 187.562 484.253 184.404C484.253 183.231 484.073 182.058 483.622 181.066C483.17 180.073 481.997 179.622 480.103 179.532C476.945 179.532 473.967 180.795 471.26 183.322C468.553 185.938 466.388 189.096 464.764 192.796C463.14 196.585 462.328 200.285 462.328 203.984C462.328 207.683 463.32 210.932 465.305 213.638C466.659 215.082 468.192 215.804 469.817 215.804Z" stroke="white" stroke-width="82" stroke-linejoin="round" mask="url(#path-2-outside-2_85_85)"/>
<path d="M356.685 222.065C354.96 222.065 353.235 221.942 351.511 221.696C349.786 221.572 348.061 221.388 346.337 221.141L356.13 171.433C357.362 164.657 358.656 157.512 360.011 149.998C361.489 142.36 362.906 134.845 364.261 127.453C365.616 119.939 366.786 112.978 367.772 106.572C368.881 100.166 369.743 94.7457 370.359 90.3108C375.656 89.3252 381.015 88.4013 386.436 87.5389C391.856 86.6766 397.4 86.2454 403.067 86.2454C412.183 86.2454 419.39 88.1549 424.687 91.9738C429.984 95.6696 433.803 100.597 436.144 106.757C438.485 112.793 439.655 119.446 439.655 126.714C439.655 133.243 438.731 140.142 436.883 147.41C435.035 154.556 432.386 161.701 428.937 168.846C425.611 175.868 421.607 182.52 416.926 188.803C409.657 198.535 400.788 206.543 390.316 212.826C379.968 218.985 368.758 222.065 356.685 222.065ZM378.675 198.782C382.986 195.948 387.052 191.637 390.871 185.847C394.813 180.056 398.509 173.096 401.958 164.965C405.038 157.451 407.44 150.367 409.165 143.715C410.889 136.939 411.752 131.334 411.752 126.899C411.752 122.341 410.458 118.768 407.871 116.181C405.407 113.594 401.465 112.301 396.045 112.301C394.074 122.895 392.041 132.689 389.947 141.682C387.976 150.675 386.005 159.73 384.033 168.846C382.186 177.962 380.399 187.941 378.675 198.782Z" stroke="white" stroke-width="82" stroke-linejoin="round" mask="url(#path-2-outside-2_85_85)"/>
<path d="M253.666 128.206H303.928C327.828 128.575 339.777 140.894 339.777 165.163V168.859H266.601C265.615 169.968 264.753 171.077 264.014 172.185C263.398 173.171 263.09 174.341 263.09 175.696C263.09 177.667 263.767 179.515 265.123 181.24C266.478 182.841 268.141 184.505 270.112 186.229C272.206 187.831 274.424 189.617 276.764 191.588C279.228 193.436 281.446 195.592 283.417 198.056C285.511 200.396 287.174 203.168 288.406 206.371C289.761 209.451 290.439 213.024 290.439 217.089C294.874 217.089 298.015 215.734 299.863 213.024C301.834 210.313 303.066 207.172 303.559 203.599C304.051 199.904 304.051 196.208 303.559 192.512C303.189 188.693 303.004 185.675 303.004 183.457H339.962C340.332 189.74 339.531 195.222 337.56 199.904C335.589 204.585 332.755 208.465 329.06 211.545C325.487 214.625 321.237 216.966 316.309 218.567C311.381 220.046 306.146 220.723 300.602 220.6H253.85L253.666 128.206ZM302.819 165.163C302.819 162.946 303.004 159.989 303.374 156.293C303.867 152.474 303.867 148.779 303.374 145.206C303.004 141.51 301.896 138.369 300.048 135.782C298.2 133.072 295.058 131.717 290.623 131.717C290.623 136.398 289.946 140.463 288.591 143.913C287.359 147.362 285.696 150.38 283.601 152.967C281.63 155.554 279.475 157.833 277.134 159.804C274.916 161.652 272.761 163.439 270.666 165.163H302.819Z" stroke="white" stroke-width="82" stroke-linejoin="round" mask="url(#path-2-outside-2_85_85)"/>
<path d="M108.024 258.072V256.963C120.959 241.256 120.774 161.243 120.774 138.329V125.763C120.774 115.97 120.774 105.991 120.405 96.1972C119.665 79.1966 119.111 53.6958 96.382 53.6958C86.2186 53.6958 78.6423 59.7938 78.6423 70.5115C78.6423 79.0118 85.1099 86.2186 93.7949 86.2186C96.0124 86.2186 98.4146 85.6642 100.447 84.5555L101.002 86.2186C95.0884 94.3493 84.5555 97.6755 74.9465 97.6755C61.0873 97.6755 50 90.284 50 75.5008C50 55.3589 75.1313 50 91.0231 50C109.317 50 127.426 53.1414 145.721 53.1414C162.352 53.1414 178.983 50.7392 195.614 50.7392C226.288 50.7392 243.843 72.729 243.843 102.295C243.843 125.579 231.463 153.112 206.516 158.286C217.973 185.82 250.311 265.279 285.051 265.279C294.845 265.279 302.421 258.072 302.421 248.278C302.421 237.93 293.921 233.31 284.497 234.05V233.126C289.856 229.43 296.508 227.397 302.976 227.397C314.987 227.397 328.846 232.941 328.846 246.985C328.846 262.507 312.954 270.638 299.28 270.638C286.53 270.638 274.334 266.757 261.953 263.801C248.094 260.474 233.865 258.257 219.636 258.257C214.092 258.257 208.734 258.626 203.19 259.181C202.82 241.072 175.656 160.504 155.514 160.504C155.699 179.722 156.069 243.659 168.265 256.963V258.072C158.101 256.963 147.938 256.224 137.775 256.224C127.796 256.224 117.817 256.963 108.024 258.072ZM155.514 155.145V155.699C157.177 155.884 158.656 155.884 160.319 155.884C190.255 155.884 205.407 132.231 205.407 104.328C205.407 85.849 196.537 56.2828 173.624 56.2828C160.319 56.2828 156.254 64.5983 156.254 76.6096C156.254 102.85 155.514 128.905 155.514 155.145Z" stroke="white" stroke-width="82" stroke-linejoin="round" mask="url(#path-2-outside-2_85_85)"/>
<defs>
<filter id="filter0_d_85_85" x="0" y="0" width="980.32" height="335.638" filterUnits="userSpaceOnUse" color-interpolation-filters="sRGB">
<feFlood flood-opacity="0" result="BackgroundImageFix"/>
<feColorMatrix in="SourceAlpha" type="matrix" values="0 0 0 0 0 0 0 0 0 0 0 0 0 0 0 0 0 0 127 0" result="hardAlpha"/>
<feOffset dy="15"/>
<feComposite in2="hardAlpha" operator="out"/>
<feColorMatrix type="matrix" values="0 0 0 0 0 0 0 0 0 0 0 0 0 0 0 0 0 0 1 0"/>
<feBlend mode="normal" in2="BackgroundImageFix" result="effect1_dropShadow_85_85"/>
<feBlend mode="normal" in="SourceGraphic" in2="effect1_dropShadow_85_85" result="shape"/>
</filter>
</defs>
</svg>
