<svg width="533" height="425" viewBox="0 0 533 425" fill="none" xmlns="http://www.w3.org/2000/svg">
<g filter="url(#filter0_d_85_84)">
<mask id="path-1-outside-1_85_84" maskUnits="userSpaceOnUse" x="0" y="0" width="533" height="410" fill="black">
<rect fill="white" width="533" height="410"/>
<path d="M488.6 349.304C490.078 348.564 480.469 359.467 468.273 362.793C463.284 364.087 451.457 366.489 443.142 362.054C440.37 360.945 437.783 358.913 435.75 355.771C415.978 326.944 438.892 293.313 431.87 284.812C430.946 284.258 429.837 283.704 428.359 283.519C419.304 282.964 411.173 290.541 406.369 296.824C406.369 313.639 406.369 332.303 406.369 345.423C406.369 347.271 406.369 349.304 406.369 350.967C406.369 355.032 411.173 362.239 413.76 362.608C413.76 362.978 413.76 364.641 413.76 364.641H364.052C364.052 364.641 364.052 362.978 364.052 362.608C366.27 362.239 370.705 355.586 371.259 351.706C371.259 331.194 371.259 291.834 371.259 271.877C369.042 256.724 360.911 255.985 360.911 255.985V253.953C387.52 253.953 400.456 239.909 404.336 235.658C405.445 235.658 406.369 235.658 406.369 235.658V260.975C406.369 265.225 406.369 272.062 406.369 280.377C406.369 283.519 406.369 286.845 406.369 290.171C413.206 282.04 425.587 272.616 438.337 271.323C438.337 271.323 475.295 269.29 467.534 301.813C460.327 331.933 463.838 345.977 476.589 350.597C479.73 351.151 483.611 350.967 488.6 349.304Z"/>
<path d="M348.925 331.404C350.034 326.6 355.023 328.263 354.469 332.144C352.251 352.286 333.033 367.253 311.598 367.253C284.249 367.253 261.889 346.188 261.889 320.132C261.889 294.262 284.249 273.196 311.598 273.196C335.805 273.196 360.567 293.892 347.262 313.295C337.653 326.97 304.76 333.622 311.228 310.523C317.88 286.316 310.858 278.74 300.51 281.696C289.608 284.838 285.727 304.61 292.564 325.676C303.282 358.384 343.196 353.394 348.925 331.404Z"/>
<path d="M216.251 367.253C202.987 367.253 192.972 364.637 186.115 359.404C179.167 354.26 175.287 349.208 174.295 344.335C173.302 339.463 172.761 335.854 172.761 333.598C172.761 328.816 173.844 324.214 176.009 319.883C180.972 310.048 189.363 305.086 201.093 305.086C206.777 305.086 213.183 306.529 220.311 309.327C220.763 309.507 221.123 309.597 221.394 309.597C222.026 309.597 222.387 309.326 222.387 308.875C222.387 308.514 221.936 307.973 221.033 307.341C218.236 305.627 214.356 304.274 209.394 303.281C204.341 302.289 199.288 301.567 194.325 301.296C186.656 300.665 181.152 298.319 177.814 294.258C174.475 290.198 172.761 286.047 172.761 281.807C172.761 274.318 176.821 267.911 184.942 262.588C191.709 258.167 201.634 255.821 214.898 255.37H215.8C220.582 255.37 224.733 255.821 228.432 256.723C232.131 257.625 235.38 258.618 238.357 259.701C243.139 261.415 246.658 262.317 248.824 262.317C250.087 262.317 251.35 262.137 252.523 261.776C248.643 271.521 244.493 278.017 240.162 281.175C235.741 284.333 231.59 285.957 227.62 285.957C226.537 285.957 225.454 285.867 224.372 285.687C219.319 284.784 214.447 282.529 209.845 278.829C205.243 275.13 201.183 270.979 197.664 266.197C196.671 264.934 195.95 264.302 195.408 264.302C195.138 264.302 194.957 264.393 194.867 264.573C194.596 264.934 194.416 265.475 194.416 266.287C194.416 266.829 194.506 267.46 194.596 268.182C196.671 276.844 200.01 283.341 204.431 287.672C208.852 292.003 213.364 295.431 218.146 298.048C220.582 299.492 222.928 300.935 225.003 302.469C227.079 304.003 228.883 305.808 230.417 307.883C231.139 308.966 231.5 309.958 231.5 310.86C231.5 311.492 231.319 312.124 230.868 312.755C230.056 313.928 228.973 314.56 227.439 314.56H226.808C225.184 314.379 223.65 314.289 222.206 314.289C215.8 314.289 210.747 316.094 206.867 319.613C202.085 324.034 199.469 328.184 198.837 332.245C198.205 336.305 197.844 339.192 197.844 340.907C197.844 345.328 198.837 349.388 200.822 353.087C203.529 358.231 208.13 360.937 214.537 361.298C219.77 361.208 223.74 358.952 226.537 354.621C229.244 350.381 230.958 345.779 231.77 340.907C232.583 336.034 232.943 331.974 232.943 328.635L232.853 325.117C232.853 324.214 233.214 323.763 233.846 323.763C234.207 323.763 234.928 324.034 235.921 324.575C240.884 327.372 245.395 329.899 249.365 332.335C251.982 333.869 253.696 335.042 254.689 335.764C252.974 342.621 249.997 348.396 245.666 353.087C241.244 357.87 236.462 361.389 231.139 363.735C225.815 366.08 220.853 367.253 216.251 367.253Z"/>
<path d="M109.817 266.197C107.97 268.168 105.999 270.201 103.904 272.295C101.81 274.266 99.3461 276.114 96.5127 277.839C93.8025 279.44 90.6611 280.795 87.0885 281.904C83.5159 283.013 79.4505 283.567 74.8924 283.567L74.7076 252.734H99.5584C123.161 250.046 136.456 250.046 160.265 252.734H172.646L172.761 273.1C171.058 275.1 171.049 277.333 170.558 280.306C167.791 280.188 165.223 279.833 162.852 279.241C159.895 278.378 157.185 277.269 154.721 275.914C152.257 274.436 149.978 272.835 147.884 271.11C145.913 269.385 144.065 267.599 142.34 265.751C140.369 270.555 138.029 274.744 135.318 278.317C132.731 281.889 130.206 285.277 127.742 288.48C125.401 291.56 123.369 294.64 121.644 297.719C119.919 300.799 119.057 304.187 119.057 307.883C119.057 312.811 120.861 313.595 123.334 314.6C126.29 318.665 129.467 321.044 132.916 325.725C136.489 330.407 139.692 335.765 142.525 341.802C145.359 347.715 146.775 354.983 146.775 363.607H109.817V266.197Z"/>
<path d="M441.058 263.94C438.622 263.94 436.276 263.669 434.02 263.038C431.765 262.496 429.96 261.684 428.426 260.511C426.17 258.707 424.366 256.361 423.012 253.474C421.659 250.586 420.937 247.428 420.937 243.909C420.937 241.202 421.388 238.405 422.381 235.518C425.178 228.3 430.411 222.706 438.261 218.735C446.111 214.765 453.871 212.78 461.721 212.78C462.803 212.78 464.879 212.961 467.856 213.231C468.849 213.231 469.3 212.78 469.3 211.968C469.3 208.991 468.488 205.743 466.864 202.224C465.42 199.156 463.525 196.449 461.089 194.193C458.653 191.938 455.765 190.855 452.607 190.855C450.261 190.855 447.735 192.569 445.028 195.908C442.502 199.066 440.156 202.404 437.9 205.923C436.276 208.449 434.832 210.615 433.569 212.329C432.216 214.044 431.133 214.946 430.321 214.946C429.689 214.946 429.148 214.224 428.787 212.78C428.697 212.6 428.697 212.419 428.697 212.149C427.885 208.63 427.073 204.389 426.17 199.426C425.719 197.171 425.539 195.727 425.539 195.096C428.697 192.298 432.847 190.043 438.081 188.419C443.224 186.794 448.728 185.982 454.412 185.982C464.067 185.982 472.097 188.148 478.503 192.569C485.812 197.622 489.511 205.111 489.511 214.946L489.421 217.021C488.97 225.412 488.699 232.721 488.699 239.127C488.699 248.601 489.331 256.541 490.504 262.857H457.299C458.111 261.684 458.653 260.241 458.923 258.707C458.923 258.346 458.833 258.165 458.653 258.165C458.563 258.165 458.382 258.256 458.292 258.346C458.111 258.526 457.931 258.707 457.841 258.797C457.66 258.887 457.57 258.978 457.48 259.068C455.765 260.602 453.329 261.865 450.352 262.677C447.374 263.489 444.216 263.94 441.058 263.94ZM453.871 254.376C455.405 254.376 456.848 253.925 458.292 252.932C459.736 252.03 460.818 250.947 461.54 249.594C463.345 246.075 464.969 241.563 466.322 236.059C467.676 230.555 468.307 226.134 468.307 222.976C468.307 221.803 468.127 220.63 467.676 219.638C467.225 218.645 466.052 218.194 464.157 218.104C460.999 218.104 458.021 219.367 455.314 221.893C452.607 224.51 450.442 227.668 448.818 231.368C447.194 235.157 446.382 238.857 446.382 242.556C446.382 246.255 447.374 249.504 449.359 252.21C450.713 253.654 452.247 254.376 453.871 254.376Z"/>
<path d="M348.685 247.855C346.96 247.855 345.235 247.731 343.511 247.485C341.786 247.362 340.061 247.177 338.337 246.931L348.13 197.223C349.362 190.447 350.656 183.302 352.011 175.787C353.489 168.149 354.906 160.634 356.261 153.243C357.616 145.728 358.786 138.768 359.772 132.362C360.881 125.956 361.743 120.535 362.359 116.1C367.656 115.115 373.015 114.191 378.436 113.328C383.856 112.466 389.4 112.035 395.067 112.035C404.183 112.035 411.39 113.944 416.687 117.763C421.984 121.459 425.803 126.387 428.144 132.546C430.485 138.583 431.655 145.235 431.655 152.504C431.655 159.033 430.731 165.932 428.883 173.2C427.035 180.345 424.386 187.49 420.937 194.635C417.611 201.657 413.607 208.31 408.926 214.593C401.657 224.325 392.788 232.332 382.316 238.615C371.968 244.775 360.758 247.855 348.685 247.855ZM370.675 224.571C374.986 221.738 379.052 217.426 382.871 211.636C386.813 205.846 390.509 198.886 393.958 190.755C397.038 183.24 399.44 176.157 401.165 169.504C402.889 162.729 403.752 157.123 403.752 152.688C403.752 148.13 402.458 144.558 399.871 141.971C397.407 139.384 393.465 138.09 388.045 138.09C386.074 148.685 384.041 158.478 381.947 167.472C379.976 176.465 378.005 185.519 376.033 194.635C374.186 203.752 372.399 213.73 370.675 224.571Z"/>
<path d="M245.666 120.206H295.928C319.828 120.575 331.777 132.894 331.777 157.163V160.859H258.601C257.615 161.968 256.753 163.077 256.014 164.185C255.398 165.171 255.09 166.341 255.09 167.696C255.09 169.667 255.767 171.515 257.123 173.24C258.478 174.841 260.141 176.505 262.112 178.229C264.206 179.831 266.424 181.617 268.764 183.588C271.228 185.436 273.446 187.592 275.417 190.056C277.511 192.396 279.174 195.168 280.406 198.371C281.761 201.451 282.439 205.024 282.439 209.089C286.874 209.089 290.015 207.734 291.863 205.024C293.834 202.313 295.066 199.172 295.559 195.599C296.051 191.904 296.051 188.208 295.559 184.512C295.189 180.693 295.004 177.675 295.004 175.457H331.962C332.332 181.74 331.531 187.222 329.56 191.904C327.589 196.585 324.755 200.465 321.06 203.545C317.487 206.625 313.237 208.966 308.309 210.567C303.381 212.046 298.146 212.723 292.602 212.6H245.85L245.666 120.206ZM294.819 157.163C294.819 154.946 295.004 151.989 295.374 148.293C295.867 144.474 295.867 140.779 295.374 137.206C295.004 133.51 293.896 130.369 292.048 127.782C290.2 125.072 287.058 123.717 282.623 123.717C282.623 128.398 281.946 132.463 280.591 135.913C279.359 139.362 277.696 142.38 275.601 144.967C273.63 147.554 271.475 149.833 269.134 151.804C266.916 153.652 264.761 155.439 262.666 157.163H294.819Z"/>
<path d="M100.024 250.072V248.963C112.959 233.256 112.774 153.243 112.774 130.329V117.763C112.774 107.97 112.774 97.991 112.405 88.1972C111.665 71.1966 111.111 45.6958 88.382 45.6958C78.2186 45.6958 70.6423 51.7938 70.6423 62.5115C70.6423 71.0118 77.1099 78.2186 85.7949 78.2186C88.0124 78.2186 90.4146 77.6642 92.4473 76.5555L93.0017 78.2186C87.0884 86.3493 76.5555 89.6755 66.9465 89.6755C53.0873 89.6755 42 82.284 42 67.5008C42 47.3589 67.1313 42 83.0231 42C101.317 42 119.426 45.1414 137.721 45.1414C154.352 45.1414 170.983 42.7392 187.614 42.7392C218.288 42.7392 235.843 64.729 235.843 94.2952C235.843 117.579 223.463 145.112 198.516 150.286C209.973 177.82 242.311 257.279 277.051 257.279C286.845 257.279 294.421 250.072 294.421 240.278C294.421 229.93 285.921 225.31 276.497 226.05V225.126C281.856 221.43 288.508 219.397 294.976 219.397C306.987 219.397 320.846 224.941 320.846 238.985C320.846 254.507 304.954 262.638 291.28 262.638C278.53 262.638 266.334 258.757 253.953 255.801C240.094 252.474 225.865 250.257 211.636 250.257C206.092 250.257 200.734 250.626 195.19 251.181C194.82 233.072 167.656 152.504 147.514 152.504C147.699 171.722 148.069 235.659 160.265 248.963V250.072C150.101 248.963 139.938 248.224 129.775 248.224C119.796 248.224 109.817 248.963 100.024 250.072ZM147.514 147.145V147.699C149.177 147.884 150.656 147.884 152.319 147.884C182.255 147.884 197.407 124.231 197.407 96.3279C197.407 77.849 188.537 48.2828 165.624 48.2828C152.319 48.2828 148.254 56.5983 148.254 68.6096C148.254 94.8496 147.514 120.905 147.514 147.145Z"/>
</mask>
<path d="M488.6 349.304C490.078 348.564 480.469 359.467 468.273 362.793C463.284 364.087 451.457 366.489 443.142 362.054C440.37 360.945 437.783 358.913 435.75 355.771C415.978 326.944 438.892 293.313 431.87 284.812C430.946 284.258 429.837 283.704 428.359 283.519C419.304 282.964 411.173 290.541 406.369 296.824C406.369 313.639 406.369 332.303 406.369 345.423C406.369 347.271 406.369 349.304 406.369 350.967C406.369 355.032 411.173 362.239 413.76 362.608C413.76 362.978 413.76 364.641 413.76 364.641H364.052C364.052 364.641 364.052 362.978 364.052 362.608C366.27 362.239 370.705 355.586 371.259 351.706C371.259 331.194 371.259 291.834 371.259 271.877C369.042 256.724 360.911 255.985 360.911 255.985V253.953C387.52 253.953 400.456 239.909 404.336 235.658C405.445 235.658 406.369 235.658 406.369 235.658V260.975C406.369 265.225 406.369 272.062 406.369 280.377C406.369 283.519 406.369 286.845 406.369 290.171C413.206 282.04 425.587 272.616 438.337 271.323C438.337 271.323 475.295 269.29 467.534 301.813C460.327 331.933 463.838 345.977 476.589 350.597C479.73 351.151 483.611 350.967 488.6 349.304Z" fill="#E61425"/>
<path d="M348.925 331.404C350.034 326.6 355.023 328.263 354.469 332.144C352.251 352.286 333.033 367.253 311.598 367.253C284.249 367.253 261.889 346.188 261.889 320.132C261.889 294.262 284.249 273.196 311.598 273.196C335.805 273.196 360.567 293.892 347.262 313.295C337.653 326.97 304.76 333.622 311.228 310.523C317.88 286.316 310.858 278.74 300.51 281.696C289.608 284.838 285.727 304.61 292.564 325.676C303.282 358.384 343.196 353.394 348.925 331.404Z" fill="#F2B505"/>
<path d="M216.251 367.253C202.987 367.253 192.972 364.637 186.115 359.404C179.167 354.26 175.287 349.208 174.295 344.335C173.302 339.463 172.761 335.854 172.761 333.598C172.761 328.816 173.844 324.214 176.009 319.883C180.972 310.048 189.363 305.086 201.093 305.086C206.777 305.086 213.183 306.529 220.311 309.327C220.763 309.507 221.123 309.597 221.394 309.597C222.026 309.597 222.387 309.326 222.387 308.875C222.387 308.514 221.936 307.973 221.033 307.341C218.236 305.627 214.356 304.274 209.394 303.281C204.341 302.289 199.288 301.567 194.325 301.296C186.656 300.665 181.152 298.319 177.814 294.258C174.475 290.198 172.761 286.047 172.761 281.807C172.761 274.318 176.821 267.911 184.942 262.588C191.709 258.167 201.634 255.821 214.898 255.37H215.8C220.582 255.37 224.733 255.821 228.432 256.723C232.131 257.625 235.38 258.618 238.357 259.701C243.139 261.415 246.658 262.317 248.824 262.317C250.087 262.317 251.35 262.137 252.523 261.776C248.643 271.521 244.493 278.017 240.162 281.175C235.741 284.333 231.59 285.957 227.62 285.957C226.537 285.957 225.454 285.867 224.372 285.687C219.319 284.784 214.447 282.529 209.845 278.829C205.243 275.13 201.183 270.979 197.664 266.197C196.671 264.934 195.95 264.302 195.408 264.302C195.138 264.302 194.957 264.393 194.867 264.573C194.596 264.934 194.416 265.475 194.416 266.287C194.416 266.829 194.506 267.46 194.596 268.182C196.671 276.844 200.01 283.341 204.431 287.672C208.852 292.003 213.364 295.431 218.146 298.048C220.582 299.492 222.928 300.935 225.003 302.469C227.079 304.003 228.883 305.808 230.417 307.883C231.139 308.966 231.5 309.958 231.5 310.86C231.5 311.492 231.319 312.124 230.868 312.755C230.056 313.928 228.973 314.56 227.439 314.56H226.808C225.184 314.379 223.65 314.289 222.206 314.289C215.8 314.289 210.747 316.094 206.867 319.613C202.085 324.034 199.469 328.184 198.837 332.245C198.205 336.305 197.844 339.192 197.844 340.907C197.844 345.328 198.837 349.388 200.822 353.087C203.529 358.231 208.13 360.937 214.537 361.298C219.77 361.208 223.74 358.952 226.537 354.621C229.244 350.381 230.958 345.779 231.77 340.907C232.583 336.034 232.943 331.974 232.943 328.635L232.853 325.117C232.853 324.214 233.214 323.763 233.846 323.763C234.207 323.763 234.928 324.034 235.921 324.575C240.884 327.372 245.395 329.899 249.365 332.335C251.982 333.869 253.696 335.042 254.689 335.764C252.974 342.621 249.997 348.396 245.666 353.087C241.244 357.87 236.462 361.389 231.139 363.735C225.815 366.08 220.853 367.253 216.251 367.253Z" fill="#F55FC0"/>
<path d="M109.817 266.197C107.97 268.168 105.999 270.201 103.904 272.295C101.81 274.266 99.3461 276.114 96.5127 277.839C93.8025 279.44 90.6611 280.795 87.0885 281.904C83.5159 283.013 79.4505 283.567 74.8924 283.567L74.7076 252.734H99.5584C123.161 250.046 136.456 250.046 160.265 252.734H172.646L172.761 273.1C171.058 275.1 171.049 277.333 170.558 280.306C167.791 280.188 165.223 279.833 162.852 279.241C159.895 278.378 157.185 277.269 154.721 275.914C152.257 274.436 149.978 272.835 147.884 271.11C145.913 269.385 144.065 267.599 142.34 265.751C140.369 270.555 138.029 274.744 135.318 278.317C132.731 281.889 130.206 285.277 127.742 288.48C125.401 291.56 123.369 294.64 121.644 297.719C119.919 300.799 119.057 304.187 119.057 307.883C119.057 312.811 120.861 313.595 123.334 314.6C126.29 318.665 129.467 321.044 132.916 325.725C136.489 330.407 139.692 335.765 142.525 341.802C145.359 347.715 146.775 354.983 146.775 363.607H109.817V266.197Z" fill="#0265DE"/>
<path d="M441.058 263.94C438.622 263.94 436.276 263.669 434.02 263.038C431.765 262.496 429.96 261.684 428.426 260.511C426.17 258.707 424.366 256.361 423.012 253.474C421.659 250.586 420.937 247.428 420.937 243.909C420.937 241.202 421.388 238.405 422.381 235.518C425.178 228.3 430.411 222.706 438.261 218.735C446.111 214.765 453.871 212.78 461.721 212.78C462.803 212.78 464.879 212.961 467.856 213.231C468.849 213.231 469.3 212.78 469.3 211.968C469.3 208.991 468.488 205.743 466.864 202.224C465.42 199.156 463.525 196.449 461.089 194.193C458.653 191.938 455.765 190.855 452.607 190.855C450.261 190.855 447.735 192.569 445.028 195.908C442.502 199.066 440.156 202.404 437.9 205.923C436.276 208.449 434.832 210.615 433.569 212.329C432.216 214.044 431.133 214.946 430.321 214.946C429.689 214.946 429.148 214.224 428.787 212.78C428.697 212.6 428.697 212.419 428.697 212.149C427.885 208.63 427.073 204.389 426.17 199.426C425.719 197.171 425.539 195.727 425.539 195.096C428.697 192.298 432.847 190.043 438.081 188.419C443.224 186.794 448.728 185.982 454.412 185.982C464.067 185.982 472.097 188.148 478.503 192.569C485.812 197.622 489.511 205.111 489.511 214.946L489.421 217.021C488.97 225.412 488.699 232.721 488.699 239.127C488.699 248.601 489.331 256.541 490.504 262.857H457.299C458.111 261.684 458.653 260.241 458.923 258.707C458.923 258.346 458.833 258.165 458.653 258.165C458.563 258.165 458.382 258.256 458.292 258.346C458.111 258.526 457.931 258.707 457.841 258.797C457.66 258.887 457.57 258.978 457.48 259.068C455.765 260.602 453.329 261.865 450.352 262.677C447.374 263.489 444.216 263.94 441.058 263.94ZM453.871 254.376C455.405 254.376 456.848 253.925 458.292 252.932C459.736 252.03 460.818 250.947 461.54 249.594C463.345 246.075 464.969 241.563 466.322 236.059C467.676 230.555 468.307 226.134 468.307 222.976C468.307 221.803 468.127 220.63 467.676 219.638C467.225 218.645 466.052 218.194 464.157 218.104C460.999 218.104 458.021 219.367 455.314 221.893C452.607 224.51 450.442 227.668 448.818 231.368C447.194 235.157 446.382 238.857 446.382 242.556C446.382 246.255 447.374 249.504 449.359 252.21C450.713 253.654 452.247 254.376 453.871 254.376Z" fill="#0265DE"/>
<path d="M348.685 247.855C346.96 247.855 345.235 247.731 343.511 247.485C341.786 247.362 340.061 247.177 338.337 246.931L348.13 197.223C349.362 190.447 350.656 183.302 352.011 175.787C353.489 168.149 354.906 160.634 356.261 153.243C357.616 145.728 358.786 138.768 359.772 132.362C360.881 125.956 361.743 120.535 362.359 116.1C367.656 115.115 373.015 114.191 378.436 113.328C383.856 112.466 389.4 112.035 395.067 112.035C404.183 112.035 411.39 113.944 416.687 117.763C421.984 121.459 425.803 126.387 428.144 132.546C430.485 138.583 431.655 145.235 431.655 152.504C431.655 159.033 430.731 165.932 428.883 173.2C427.035 180.345 424.386 187.49 420.937 194.635C417.611 201.657 413.607 208.31 408.926 214.593C401.657 224.325 392.788 232.332 382.316 238.615C371.968 244.775 360.758 247.855 348.685 247.855ZM370.675 224.571C374.986 221.738 379.052 217.426 382.871 211.636C386.813 205.846 390.509 198.886 393.958 190.755C397.038 183.24 399.44 176.157 401.165 169.504C402.889 162.729 403.752 157.123 403.752 152.688C403.752 148.13 402.458 144.558 399.871 141.971C397.407 139.384 393.465 138.09 388.045 138.09C386.074 148.685 384.041 158.478 381.947 167.472C379.976 176.465 378.005 185.519 376.033 194.635C374.186 203.752 372.399 213.73 370.675 224.571Z" fill="#0DA144"/>
<path d="M245.666 120.206H295.928C319.828 120.575 331.777 132.894 331.777 157.163V160.859H258.601C257.615 161.968 256.753 163.077 256.014 164.185C255.398 165.171 255.09 166.341 255.09 167.696C255.09 169.667 255.767 171.515 257.123 173.24C258.478 174.841 260.141 176.505 262.112 178.229C264.206 179.831 266.424 181.617 268.764 183.588C271.228 185.436 273.446 187.592 275.417 190.056C277.511 192.396 279.174 195.168 280.406 198.371C281.761 201.451 282.439 205.024 282.439 209.089C286.874 209.089 290.015 207.734 291.863 205.024C293.834 202.313 295.066 199.172 295.559 195.599C296.051 191.904 296.051 188.208 295.559 184.512C295.189 180.693 295.004 177.675 295.004 175.457H331.962C332.332 181.74 331.531 187.222 329.56 191.904C327.589 196.585 324.755 200.465 321.06 203.545C317.487 206.625 313.237 208.966 308.309 210.567C303.381 212.046 298.146 212.723 292.602 212.6H245.85L245.666 120.206ZM294.819 157.163C294.819 154.946 295.004 151.989 295.374 148.293C295.867 144.474 295.867 140.779 295.374 137.206C295.004 133.51 293.896 130.369 292.048 127.782C290.2 125.072 287.058 123.717 282.623 123.717C282.623 128.398 281.946 132.463 280.591 135.913C279.359 139.362 277.696 142.38 275.601 144.967C273.63 147.554 271.475 149.833 269.134 151.804C266.916 153.652 264.761 155.439 262.666 157.163H294.819Z" fill="#F55FC0"/>
<path d="M100.024 250.072V248.963C112.959 233.256 112.774 153.243 112.774 130.329V117.763C112.774 107.97 112.774 97.991 112.405 88.1972C111.665 71.1966 111.111 45.6958 88.382 45.6958C78.2186 45.6958 70.6423 51.7938 70.6423 62.5115C70.6423 71.0118 77.1099 78.2186 85.7949 78.2186C88.0124 78.2186 90.4146 77.6642 92.4473 76.5555L93.0017 78.2186C87.0884 86.3493 76.5555 89.6755 66.9465 89.6755C53.0873 89.6755 42 82.284 42 67.5008C42 47.3589 67.1313 42 83.0231 42C101.317 42 119.426 45.1414 137.721 45.1414C154.352 45.1414 170.983 42.7392 187.614 42.7392C218.288 42.7392 235.843 64.729 235.843 94.2952C235.843 117.579 223.463 145.112 198.516 150.286C209.973 177.82 242.311 257.279 277.051 257.279C286.845 257.279 294.421 250.072 294.421 240.278C294.421 229.93 285.921 225.31 276.497 226.05V225.126C281.856 221.43 288.508 219.397 294.976 219.397C306.987 219.397 320.846 224.941 320.846 238.985C320.846 254.507 304.954 262.638 291.28 262.638C278.53 262.638 266.334 258.757 253.953 255.801C240.094 252.474 225.865 250.257 211.636 250.257C206.092 250.257 200.734 250.626 195.19 251.181C194.82 233.072 167.656 152.504 147.514 152.504C147.699 171.722 148.069 235.659 160.265 248.963V250.072C150.101 248.963 139.938 248.224 129.775 248.224C119.796 248.224 109.817 248.963 100.024 250.072ZM147.514 147.145V147.699C149.177 147.884 150.656 147.884 152.319 147.884C182.255 147.884 197.407 124.231 197.407 96.3279C197.407 77.849 188.537 48.2828 165.624 48.2828C152.319 48.2828 148.254 56.5983 148.254 68.6096C148.254 94.8496 147.514 120.905 147.514 147.145Z" fill="#F2B505"/>
<path d="M488.6 349.304C490.078 348.564 480.469 359.467 468.273 362.793C463.284 364.087 451.457 366.489 443.142 362.054C440.37 360.945 437.783 358.913 435.75 355.771C415.978 326.944 438.892 293.313 431.87 284.812C430.946 284.258 429.837 283.704 428.359 283.519C419.304 282.964 411.173 290.541 406.369 296.824C406.369 313.639 406.369 332.303 406.369 345.423C406.369 347.271 406.369 349.304 406.369 350.967C406.369 355.032 411.173 362.239 413.76 362.608C413.76 362.978 413.76 364.641 413.76 364.641H364.052C364.052 364.641 364.052 362.978 364.052 362.608C366.27 362.239 370.705 355.586 371.259 351.706C371.259 331.194 371.259 291.834 371.259 271.877C369.042 256.724 360.911 255.985 360.911 255.985V253.953C387.52 253.953 400.456 239.909 404.336 235.658C405.445 235.658 406.369 235.658 406.369 235.658V260.975C406.369 265.225 406.369 272.062 406.369 280.377C406.369 283.519 406.369 286.845 406.369 290.171C413.206 282.04 425.587 272.616 438.337 271.323C438.337 271.323 475.295 269.29 467.534 301.813C460.327 331.933 463.838 345.977 476.589 350.597C479.73 351.151 483.611 350.967 488.6 349.304Z" stroke="black" stroke-width="84" stroke-linejoin="round" mask="url(#path-1-outside-1_85_84)"/>
<path d="M348.925 331.404C350.034 326.6 355.023 328.263 354.469 332.144C352.251 352.286 333.033 367.253 311.598 367.253C284.249 367.253 261.889 346.188 261.889 320.132C261.889 294.262 284.249 273.196 311.598 273.196C335.805 273.196 360.567 293.892 347.262 313.295C337.653 326.97 304.76 333.622 311.228 310.523C317.88 286.316 310.858 278.74 300.51 281.696C289.608 284.838 285.727 304.61 292.564 325.676C303.282 358.384 343.196 353.394 348.925 331.404Z" stroke="black" stroke-width="84" stroke-linejoin="round" mask="url(#path-1-outside-1_85_84)"/>
<path d="M216.251 367.253C202.987 367.253 192.972 364.637 186.115 359.404C179.167 354.26 175.287 349.208 174.295 344.335C173.302 339.463 172.761 335.854 172.761 333.598C172.761 328.816 173.844 324.214 176.009 319.883C180.972 310.048 189.363 305.086 201.093 305.086C206.777 305.086 213.183 306.529 220.311 309.327C220.763 309.507 221.123 309.597 221.394 309.597C222.026 309.597 222.387 309.326 222.387 308.875C222.387 308.514 221.936 307.973 221.033 307.341C218.236 305.627 214.356 304.274 209.394 303.281C204.341 302.289 199.288 301.567 194.325 301.296C186.656 300.665 181.152 298.319 177.814 294.258C174.475 290.198 172.761 286.047 172.761 281.807C172.761 274.318 176.821 267.911 184.942 262.588C191.709 258.167 201.634 255.821 214.898 255.37H215.8C220.582 255.37 224.733 255.821 228.432 256.723C232.131 257.625 235.38 258.618 238.357 259.701C243.139 261.415 246.658 262.317 248.824 262.317C250.087 262.317 251.35 262.137 252.523 261.776C248.643 271.521 244.493 278.017 240.162 281.175C235.741 284.333 231.59 285.957 227.62 285.957C226.537 285.957 225.454 285.867 224.372 285.687C219.319 284.784 214.447 282.529 209.845 278.829C205.243 275.13 201.183 270.979 197.664 266.197C196.671 264.934 195.95 264.302 195.408 264.302C195.138 264.302 194.957 264.393 194.867 264.573C194.596 264.934 194.416 265.475 194.416 266.287C194.416 266.829 194.506 267.46 194.596 268.182C196.671 276.844 200.01 283.341 204.431 287.672C208.852 292.003 213.364 295.431 218.146 298.048C220.582 299.492 222.928 300.935 225.003 302.469C227.079 304.003 228.883 305.808 230.417 307.883C231.139 308.966 231.5 309.958 231.5 310.86C231.5 311.492 231.319 312.124 230.868 312.755C230.056 313.928 228.973 314.56 227.439 314.56H226.808C225.184 314.379 223.65 314.289 222.206 314.289C215.8 314.289 210.747 316.094 206.867 319.613C202.085 324.034 199.469 328.184 198.837 332.245C198.205 336.305 197.844 339.192 197.844 340.907C197.844 345.328 198.837 349.388 200.822 353.087C203.529 358.231 208.13 360.937 214.537 361.298C219.77 361.208 223.74 358.952 226.537 354.621C229.244 350.381 230.958 345.779 231.77 340.907C232.583 336.034 232.943 331.974 232.943 328.635L232.853 325.117C232.853 324.214 233.214 323.763 233.846 323.763C234.207 323.763 234.928 324.034 235.921 324.575C240.884 327.372 245.395 329.899 249.365 332.335C251.982 333.869 253.696 335.042 254.689 335.764C252.974 342.621 249.997 348.396 245.666 353.087C241.244 357.87 236.462 361.389 231.139 363.735C225.815 366.08 220.853 367.253 216.251 367.253Z" stroke="black" stroke-width="84" stroke-linejoin="round" mask="url(#path-1-outside-1_85_84)"/>
<path d="M109.817 266.197C107.97 268.168 105.999 270.201 103.904 272.295C101.81 274.266 99.3461 276.114 96.5127 277.839C93.8025 279.44 90.6611 280.795 87.0885 281.904C83.5159 283.013 79.4505 283.567 74.8924 283.567L74.7076 252.734H99.5584C123.161 250.046 136.456 250.046 160.265 252.734H172.646L172.761 273.1C171.058 275.1 171.049 277.333 170.558 280.306C167.791 280.188 165.223 279.833 162.852 279.241C159.895 278.378 157.185 277.269 154.721 275.914C152.257 274.436 149.978 272.835 147.884 271.11C145.913 269.385 144.065 267.599 142.34 265.751C140.369 270.555 138.029 274.744 135.318 278.317C132.731 281.889 130.206 285.277 127.742 288.48C125.401 291.56 123.369 294.64 121.644 297.719C119.919 300.799 119.057 304.187 119.057 307.883C119.057 312.811 120.861 313.595 123.334 314.6C126.29 318.665 129.467 321.044 132.916 325.725C136.489 330.407 139.692 335.765 142.525 341.802C145.359 347.715 146.775 354.983 146.775 363.607H109.817V266.197Z" stroke="black" stroke-width="84" stroke-linejoin="round" mask="url(#path-1-outside-1_85_84)"/>
<path d="M441.058 263.94C438.622 263.94 436.276 263.669 434.02 263.038C431.765 262.496 429.96 261.684 428.426 260.511C426.17 258.707 424.366 256.361 423.012 253.474C421.659 250.586 420.937 247.428 420.937 243.909C420.937 241.202 421.388 238.405 422.381 235.518C425.178 228.3 430.411 222.706 438.261 218.735C446.111 214.765 453.871 212.78 461.721 212.78C462.803 212.78 464.879 212.961 467.856 213.231C468.849 213.231 469.3 212.78 469.3 211.968C469.3 208.991 468.488 205.743 466.864 202.224C465.42 199.156 463.525 196.449 461.089 194.193C458.653 191.938 455.765 190.855 452.607 190.855C450.261 190.855 447.735 192.569 445.028 195.908C442.502 199.066 440.156 202.404 437.9 205.923C436.276 208.449 434.832 210.615 433.569 212.329C432.216 214.044 431.133 214.946 430.321 214.946C429.689 214.946 429.148 214.224 428.787 212.78C428.697 212.6 428.697 212.419 428.697 212.149C427.885 208.63 427.073 204.389 426.17 199.426C425.719 197.171 425.539 195.727 425.539 195.096C428.697 192.298 432.847 190.043 438.081 188.419C443.224 186.794 448.728 185.982 454.412 185.982C464.067 185.982 472.097 188.148 478.503 192.569C485.812 197.622 489.511 205.111 489.511 214.946L489.421 217.021C488.97 225.412 488.699 232.721 488.699 239.127C488.699 248.601 489.331 256.541 490.504 262.857H457.299C458.111 261.684 458.653 260.241 458.923 258.707C458.923 258.346 458.833 258.165 458.653 258.165C458.563 258.165 458.382 258.256 458.292 258.346C458.111 258.526 457.931 258.707 457.841 258.797C457.66 258.887 457.57 258.978 457.48 259.068C455.765 260.602 453.329 261.865 450.352 262.677C447.374 263.489 444.216 263.94 441.058 263.94ZM453.871 254.376C455.405 254.376 456.848 253.925 458.292 252.932C459.736 252.03 460.818 250.947 461.54 249.594C463.345 246.075 464.969 241.563 466.322 236.059C467.676 230.555 468.307 226.134 468.307 222.976C468.307 221.803 468.127 220.63 467.676 219.638C467.225 218.645 466.052 218.194 464.157 218.104C460.999 218.104 458.021 219.367 455.314 221.893C452.607 224.51 450.442 227.668 448.818 231.368C447.194 235.157 446.382 238.857 446.382 242.556C446.382 246.255 447.374 249.504 449.359 252.21C450.713 253.654 452.247 254.376 453.871 254.376Z" stroke="black" stroke-width="84" stroke-linejoin="round" mask="url(#path-1-outside-1_85_84)"/>
<path d="M348.685 247.855C346.96 247.855 345.235 247.731 343.511 247.485C341.786 247.362 340.061 247.177 338.337 246.931L348.13 197.223C349.362 190.447 350.656 183.302 352.011 175.787C353.489 168.149 354.906 160.634 356.261 153.243C357.616 145.728 358.786 138.768 359.772 132.362C360.881 125.956 361.743 120.535 362.359 116.1C367.656 115.115 373.015 114.191 378.436 113.328C383.856 112.466 389.4 112.035 395.067 112.035C404.183 112.035 411.39 113.944 416.687 117.763C421.984 121.459 425.803 126.387 428.144 132.546C430.485 138.583 431.655 145.235 431.655 152.504C431.655 159.033 430.731 165.932 428.883 173.2C427.035 180.345 424.386 187.49 420.937 194.635C417.611 201.657 413.607 208.31 408.926 214.593C401.657 224.325 392.788 232.332 382.316 238.615C371.968 244.775 360.758 247.855 348.685 247.855ZM370.675 224.571C374.986 221.738 379.052 217.426 382.871 211.636C386.813 205.846 390.509 198.886 393.958 190.755C397.038 183.24 399.44 176.157 401.165 169.504C402.889 162.729 403.752 157.123 403.752 152.688C403.752 148.13 402.458 144.558 399.871 141.971C397.407 139.384 393.465 138.09 388.045 138.09C386.074 148.685 384.041 158.478 381.947 167.472C379.976 176.465 378.005 185.519 376.033 194.635C374.186 203.752 372.399 213.73 370.675 224.571Z" stroke="black" stroke-width="84" stroke-linejoin="round" mask="url(#path-1-outside-1_85_84)"/>
<path d="M245.666 120.206H295.928C319.828 120.575 331.777 132.894 331.777 157.163V160.859H258.601C257.615 161.968 256.753 163.077 256.014 164.185C255.398 165.171 255.09 166.341 255.09 167.696C255.09 169.667 255.767 171.515 257.123 173.24C258.478 174.841 260.141 176.505 262.112 178.229C264.206 179.831 266.424 181.617 268.764 183.588C271.228 185.436 273.446 187.592 275.417 190.056C277.511 192.396 279.174 195.168 280.406 198.371C281.761 201.451 282.439 205.024 282.439 209.089C286.874 209.089 290.015 207.734 291.863 205.024C293.834 202.313 295.066 199.172 295.559 195.599C296.051 191.904 296.051 188.208 295.559 184.512C295.189 180.693 295.004 177.675 295.004 175.457H331.962C332.332 181.74 331.531 187.222 329.56 191.904C327.589 196.585 324.755 200.465 321.06 203.545C317.487 206.625 313.237 208.966 308.309 210.567C303.381 212.046 298.146 212.723 292.602 212.6H245.85L245.666 120.206ZM294.819 157.163C294.819 154.946 295.004 151.989 295.374 148.293C295.867 144.474 295.867 140.779 295.374 137.206C295.004 133.51 293.896 130.369 292.048 127.782C290.2 125.072 287.058 123.717 282.623 123.717C282.623 128.398 281.946 132.463 280.591 135.913C279.359 139.362 277.696 142.38 275.601 144.967C273.63 147.554 271.475 149.833 269.134 151.804C266.916 153.652 264.761 155.439 262.666 157.163H294.819Z" stroke="black" stroke-width="84" stroke-linejoin="round" mask="url(#path-1-outside-1_85_84)"/>
<path d="M100.024 250.072V248.963C112.959 233.256 112.774 153.243 112.774 130.329V117.763C112.774 107.97 112.774 97.991 112.405 88.1972C111.665 71.1966 111.111 45.6958 88.382 45.6958C78.2186 45.6958 70.6423 51.7938 70.6423 62.5115C70.6423 71.0118 77.1099 78.2186 85.7949 78.2186C88.0124 78.2186 90.4146 77.6642 92.4473 76.5555L93.0017 78.2186C87.0884 86.3493 76.5555 89.6755 66.9465 89.6755C53.0873 89.6755 42 82.284 42 67.5008C42 47.3589 67.1313 42 83.0231 42C101.317 42 119.426 45.1414 137.721 45.1414C154.352 45.1414 170.983 42.7392 187.614 42.7392C218.288 42.7392 235.843 64.729 235.843 94.2952C235.843 117.579 223.463 145.112 198.516 150.286C209.973 177.82 242.311 257.279 277.051 257.279C286.845 257.279 294.421 250.072 294.421 240.278C294.421 229.93 285.921 225.31 276.497 226.05V225.126C281.856 221.43 288.508 219.397 294.976 219.397C306.987 219.397 320.846 224.941 320.846 238.985C320.846 254.507 304.954 262.638 291.28 262.638C278.53 262.638 266.334 258.757 253.953 255.801C240.094 252.474 225.865 250.257 211.636 250.257C206.092 250.257 200.734 250.626 195.19 251.181C194.82 233.072 167.656 152.504 147.514 152.504C147.699 171.722 148.069 235.659 160.265 248.963V250.072C150.101 248.963 139.938 248.224 129.775 248.224C119.796 248.224 109.817 248.963 100.024 250.072ZM147.514 147.145V147.699C149.177 147.884 150.656 147.884 152.319 147.884C182.255 147.884 197.407 124.231 197.407 96.3279C197.407 77.849 188.537 48.2828 165.624 48.2828C152.319 48.2828 148.254 56.5983 148.254 68.6096C148.254 94.8496 147.514 120.905 147.514 147.145Z" stroke="black" stroke-width="84" stroke-linejoin="round" mask="url(#path-1-outside-1_85_84)"/>
</g>
<mask id="path-2-outside-2_85_84" maskUnits="userSpaceOnUse" x="8" y="8" width="517" height="394" fill="black">
<rect fill="white" x="8" y="8" width="517" height="394"/>
<path d="M488.6 349.304C490.078 348.564 480.469 359.467 468.273 362.793C463.284 364.087 451.457 366.489 443.142 362.054C440.37 360.945 437.783 358.913 435.75 355.771C415.978 326.944 438.892 293.313 431.87 284.812C430.946 284.258 429.837 283.704 428.359 283.519C419.304 282.964 411.173 290.541 406.369 296.824C406.369 313.639 406.369 332.303 406.369 345.423C406.369 347.271 406.369 349.304 406.369 350.967C406.369 355.032 411.173 362.239 413.76 362.608C413.76 362.978 413.76 364.641 413.76 364.641H364.052C364.052 364.641 364.052 362.978 364.052 362.608C366.27 362.239 370.705 355.586 371.259 351.706C371.259 331.194 371.259 291.834 371.259 271.877C369.042 256.724 360.911 255.985 360.911 255.985V253.953C387.52 253.953 400.456 239.909 404.336 235.658C405.445 235.658 406.369 235.658 406.369 235.658V260.975C406.369 265.225 406.369 272.062 406.369 280.377C406.369 283.519 406.369 286.845 406.369 290.171C413.206 282.04 425.587 272.616 438.337 271.323C438.337 271.323 475.295 269.29 467.534 301.813C460.327 331.933 463.838 345.977 476.589 350.597C479.73 351.151 483.611 350.967 488.6 349.304Z"/>
<path d="M348.925 331.404C350.034 326.6 355.023 328.263 354.469 332.144C352.251 352.286 333.033 367.253 311.598 367.253C284.249 367.253 261.889 346.188 261.889 320.132C261.889 294.262 284.249 273.196 311.598 273.196C335.805 273.196 360.567 293.892 347.262 313.295C337.653 326.97 304.76 333.622 311.228 310.523C317.88 286.316 310.858 278.74 300.51 281.696C289.608 284.838 285.727 304.61 292.564 325.676C303.282 358.384 343.196 353.394 348.925 331.404Z"/>
<path d="M216.251 367.253C202.987 367.253 192.972 364.637 186.115 359.404C179.167 354.26 175.287 349.208 174.295 344.335C173.302 339.463 172.761 335.854 172.761 333.598C172.761 328.816 173.844 324.214 176.009 319.883C180.972 310.048 189.363 305.086 201.093 305.086C206.777 305.086 213.183 306.529 220.311 309.327C220.763 309.507 221.123 309.597 221.394 309.597C222.026 309.597 222.387 309.326 222.387 308.875C222.387 308.514 221.936 307.973 221.033 307.341C218.236 305.627 214.356 304.274 209.394 303.281C204.341 302.289 199.288 301.567 194.325 301.296C186.656 300.665 181.152 298.319 177.814 294.258C174.475 290.198 172.761 286.047 172.761 281.807C172.761 274.318 176.821 267.911 184.942 262.588C191.709 258.167 201.634 255.821 214.898 255.37H215.8C220.582 255.37 224.733 255.821 228.432 256.723C232.131 257.625 235.38 258.618 238.357 259.701C243.139 261.415 246.658 262.317 248.824 262.317C250.087 262.317 251.35 262.137 252.523 261.776C248.643 271.521 244.493 278.017 240.162 281.175C235.741 284.333 231.59 285.957 227.62 285.957C226.537 285.957 225.454 285.867 224.372 285.687C219.319 284.784 214.447 282.529 209.845 278.829C205.243 275.13 201.183 270.979 197.664 266.197C196.671 264.934 195.95 264.302 195.408 264.302C195.138 264.302 194.957 264.393 194.867 264.573C194.596 264.934 194.416 265.475 194.416 266.287C194.416 266.829 194.506 267.46 194.596 268.182C196.671 276.844 200.01 283.341 204.431 287.672C208.852 292.003 213.364 295.431 218.146 298.048C220.582 299.492 222.928 300.935 225.003 302.469C227.079 304.003 228.883 305.808 230.417 307.883C231.139 308.966 231.5 309.958 231.5 310.86C231.5 311.492 231.319 312.124 230.868 312.755C230.056 313.928 228.973 314.56 227.439 314.56H226.808C225.184 314.379 223.65 314.289 222.206 314.289C215.8 314.289 210.747 316.094 206.867 319.613C202.085 324.034 199.469 328.184 198.837 332.245C198.205 336.305 197.844 339.192 197.844 340.907C197.844 345.328 198.837 349.388 200.822 353.087C203.529 358.231 208.13 360.937 214.537 361.298C219.77 361.208 223.74 358.952 226.537 354.621C229.244 350.381 230.958 345.779 231.77 340.907C232.583 336.034 232.943 331.974 232.943 328.635L232.853 325.117C232.853 324.214 233.214 323.763 233.846 323.763C234.207 323.763 234.928 324.034 235.921 324.575C240.884 327.372 245.395 329.899 249.365 332.335C251.982 333.869 253.696 335.042 254.689 335.764C252.974 342.621 249.997 348.396 245.666 353.087C241.244 357.87 236.462 361.389 231.139 363.735C225.815 366.08 220.853 367.253 216.251 367.253Z"/>
<path d="M109.817 266.197C107.97 268.168 105.999 270.201 103.904 272.295C101.81 274.266 99.3461 276.114 96.5127 277.839C93.8025 279.44 90.6611 280.795 87.0885 281.904C83.5159 283.013 79.4505 283.567 74.8924 283.567L74.7076 252.734H99.5584C123.161 250.046 136.456 250.046 160.265 252.734H172.646L172.761 273.1C171.058 275.1 171.049 277.333 170.558 280.306C167.791 280.188 165.223 279.833 162.852 279.241C159.895 278.378 157.185 277.269 154.721 275.914C152.257 274.436 149.978 272.835 147.884 271.11C145.913 269.385 144.065 267.599 142.34 265.751C140.369 270.555 138.029 274.744 135.318 278.317C132.731 281.889 130.206 285.277 127.742 288.48C125.401 291.56 123.369 294.64 121.644 297.719C119.919 300.799 119.057 304.187 119.057 307.883C119.057 312.811 120.861 313.595 123.334 314.6C126.29 318.665 129.467 321.044 132.916 325.725C136.489 330.407 139.692 335.765 142.525 341.802C145.359 347.715 146.775 354.983 146.775 363.607H109.817V266.197Z"/>
<path d="M441.058 263.94C438.622 263.94 436.276 263.669 434.02 263.038C431.765 262.496 429.96 261.684 428.426 260.511C426.17 258.707 424.366 256.361 423.012 253.474C421.659 250.586 420.937 247.428 420.937 243.909C420.937 241.202 421.388 238.405 422.381 235.518C425.178 228.3 430.411 222.706 438.261 218.735C446.111 214.765 453.871 212.78 461.721 212.78C462.803 212.78 464.879 212.961 467.856 213.231C468.849 213.231 469.3 212.78 469.3 211.968C469.3 208.991 468.488 205.743 466.864 202.224C465.42 199.156 463.525 196.449 461.089 194.193C458.653 191.938 455.765 190.855 452.607 190.855C450.261 190.855 447.735 192.569 445.028 195.908C442.502 199.066 440.156 202.404 437.9 205.923C436.276 208.449 434.832 210.615 433.569 212.329C432.216 214.044 431.133 214.946 430.321 214.946C429.689 214.946 429.148 214.224 428.787 212.78C428.697 212.6 428.697 212.419 428.697 212.149C427.885 208.63 427.073 204.389 426.17 199.426C425.719 197.171 425.539 195.727 425.539 195.096C428.697 192.298 432.847 190.043 438.081 188.419C443.224 186.794 448.728 185.982 454.412 185.982C464.067 185.982 472.097 188.148 478.503 192.569C485.812 197.622 489.511 205.111 489.511 214.946L489.421 217.021C488.97 225.412 488.699 232.721 488.699 239.127C488.699 248.601 489.331 256.541 490.504 262.857H457.299C458.111 261.684 458.653 260.241 458.923 258.707C458.923 258.346 458.833 258.165 458.653 258.165C458.563 258.165 458.382 258.256 458.292 258.346C458.111 258.526 457.931 258.707 457.841 258.797C457.66 258.887 457.57 258.978 457.48 259.068C455.765 260.602 453.329 261.865 450.352 262.677C447.374 263.489 444.216 263.94 441.058 263.94ZM453.871 254.376C455.405 254.376 456.848 253.925 458.292 252.932C459.736 252.03 460.818 250.947 461.54 249.594C463.345 246.075 464.969 241.563 466.322 236.059C467.676 230.555 468.307 226.134 468.307 222.976C468.307 221.803 468.127 220.63 467.676 219.638C467.225 218.645 466.052 218.194 464.157 218.104C460.999 218.104 458.021 219.367 455.314 221.893C452.607 224.51 450.442 227.668 448.818 231.368C447.194 235.157 446.382 238.857 446.382 242.556C446.382 246.255 447.374 249.504 449.359 252.21C450.713 253.654 452.247 254.376 453.871 254.376Z"/>
<path d="M348.685 247.855C346.96 247.855 345.235 247.731 343.511 247.485C341.786 247.362 340.061 247.177 338.337 246.931L348.13 197.223C349.362 190.447 350.656 183.302 352.011 175.787C353.489 168.149 354.906 160.634 356.261 153.243C357.616 145.728 358.786 138.768 359.772 132.362C360.881 125.956 361.743 120.535 362.359 116.1C367.656 115.115 373.015 114.191 378.436 113.328C383.856 112.466 389.4 112.035 395.067 112.035C404.183 112.035 411.39 113.944 416.687 117.763C421.984 121.459 425.803 126.387 428.144 132.546C430.485 138.583 431.655 145.235 431.655 152.504C431.655 159.033 430.731 165.932 428.883 173.2C427.035 180.345 424.386 187.49 420.937 194.635C417.611 201.657 413.607 208.31 408.926 214.593C401.657 224.325 392.788 232.332 382.316 238.615C371.968 244.775 360.758 247.855 348.685 247.855ZM370.675 224.571C374.986 221.738 379.052 217.426 382.871 211.636C386.813 205.846 390.509 198.886 393.958 190.755C397.038 183.24 399.44 176.157 401.165 169.504C402.889 162.729 403.752 157.123 403.752 152.688C403.752 148.13 402.458 144.558 399.871 141.971C397.407 139.384 393.465 138.09 388.045 138.09C386.074 148.685 384.041 158.478 381.947 167.472C379.976 176.465 378.005 185.519 376.033 194.635C374.186 203.752 372.399 213.73 370.675 224.571Z"/>
<path d="M245.666 120.206H295.928C319.828 120.575 331.777 132.894 331.777 157.163V160.859H258.601C257.615 161.968 256.753 163.077 256.014 164.185C255.398 165.171 255.09 166.341 255.09 167.696C255.09 169.667 255.767 171.515 257.123 173.24C258.478 174.841 260.141 176.505 262.112 178.229C264.206 179.831 266.424 181.617 268.764 183.588C271.228 185.436 273.446 187.592 275.417 190.056C277.511 192.396 279.174 195.168 280.406 198.371C281.761 201.451 282.439 205.024 282.439 209.089C286.874 209.089 290.015 207.734 291.863 205.024C293.834 202.313 295.066 199.172 295.559 195.599C296.051 191.904 296.051 188.208 295.559 184.512C295.189 180.693 295.004 177.675 295.004 175.457H331.962C332.332 181.74 331.531 187.222 329.56 191.904C327.589 196.585 324.755 200.465 321.06 203.545C317.487 206.625 313.237 208.966 308.309 210.567C303.381 212.046 298.146 212.723 292.602 212.6H245.85L245.666 120.206ZM294.819 157.163C294.819 154.946 295.004 151.989 295.374 148.293C295.867 144.474 295.867 140.779 295.374 137.206C295.004 133.51 293.896 130.369 292.048 127.782C290.2 125.072 287.058 123.717 282.623 123.717C282.623 128.398 281.946 132.463 280.591 135.913C279.359 139.362 277.696 142.38 275.601 144.967C273.63 147.554 271.475 149.833 269.134 151.804C266.916 153.652 264.761 155.439 262.666 157.163H294.819Z"/>
<path d="M100.024 250.072V248.963C112.959 233.256 112.774 153.243 112.774 130.329V117.763C112.774 107.97 112.774 97.991 112.405 88.1972C111.665 71.1966 111.111 45.6958 88.382 45.6958C78.2186 45.6958 70.6423 51.7938 70.6423 62.5115C70.6423 71.0118 77.1099 78.2186 85.7949 78.2186C88.0124 78.2186 90.4146 77.6642 92.4473 76.5555L93.0017 78.2186C87.0884 86.3493 76.5555 89.6755 66.9465 89.6755C53.0873 89.6755 42 82.284 42 67.5008C42 47.3589 67.1313 42 83.0231 42C101.317 42 119.426 45.1414 137.721 45.1414C154.352 45.1414 170.983 42.7392 187.614 42.7392C218.288 42.7392 235.843 64.729 235.843 94.2952C235.843 117.579 223.463 145.112 198.516 150.286C209.973 177.82 242.311 257.279 277.051 257.279C286.845 257.279 294.421 250.072 294.421 240.278C294.421 229.93 285.921 225.31 276.497 226.05V225.126C281.856 221.43 288.508 219.397 294.976 219.397C306.987 219.397 320.846 224.941 320.846 238.985C320.846 254.507 304.954 262.638 291.28 262.638C278.53 262.638 266.334 258.757 253.953 255.801C240.094 252.474 225.865 250.257 211.636 250.257C206.092 250.257 200.734 250.626 195.19 251.181C194.82 233.072 167.656 152.504 147.514 152.504C147.699 171.722 148.069 235.659 160.265 248.963V250.072C150.101 248.963 139.938 248.224 129.775 248.224C119.796 248.224 109.817 248.963 100.024 250.072ZM147.514 147.145V147.699C149.177 147.884 150.656 147.884 152.319 147.884C182.255 147.884 197.407 124.231 197.407 96.3279C197.407 77.849 188.537 48.2828 165.624 48.2828C152.319 48.2828 148.254 56.5983 148.254 68.6096C148.254 94.8496 147.514 120.905 147.514 147.145Z"/>
</mask>
<path d="M488.6 349.304C490.078 348.564 480.469 359.467 468.273 362.793C463.284 364.087 451.457 366.489 443.142 362.054C440.37 360.945 437.783 358.913 435.75 355.771C415.978 326.944 438.892 293.313 431.87 284.812C430.946 284.258 429.837 283.704 428.359 283.519C419.304 282.964 411.173 290.541 406.369 296.824C406.369 313.639 406.369 332.303 406.369 345.423C406.369 347.271 406.369 349.304 406.369 350.967C406.369 355.032 411.173 362.239 413.76 362.608C413.76 362.978 413.76 364.641 413.76 364.641H364.052C364.052 364.641 364.052 362.978 364.052 362.608C366.27 362.239 370.705 355.586 371.259 351.706C371.259 331.194 371.259 291.834 371.259 271.877C369.042 256.724 360.911 255.985 360.911 255.985V253.953C387.52 253.953 400.456 239.909 404.336 235.658C405.445 235.658 406.369 235.658 406.369 235.658V260.975C406.369 265.225 406.369 272.062 406.369 280.377C406.369 283.519 406.369 286.845 406.369 290.171C413.206 282.04 425.587 272.616 438.337 271.323C438.337 271.323 475.295 269.29 467.534 301.813C460.327 331.933 463.838 345.977 476.589 350.597C479.73 351.151 483.611 350.967 488.6 349.304Z" fill="#E61425"/>
<path d="M348.925 331.404C350.034 326.6 355.023 328.263 354.469 332.144C352.251 352.286 333.033 367.253 311.598 367.253C284.249 367.253 261.889 346.188 261.889 320.132C261.889 294.262 284.249 273.196 311.598 273.196C335.805 273.196 360.567 293.892 347.262 313.295C337.653 326.97 304.76 333.622 311.228 310.523C317.88 286.316 310.858 278.74 300.51 281.696C289.608 284.838 285.727 304.61 292.564 325.676C303.282 358.384 343.196 353.394 348.925 331.404Z" fill="#F2B505"/>
<path d="M216.251 367.253C202.987 367.253 192.972 364.637 186.115 359.404C179.167 354.26 175.287 349.208 174.295 344.335C173.302 339.463 172.761 335.854 172.761 333.598C172.761 328.816 173.844 324.214 176.009 319.883C180.972 310.048 189.363 305.086 201.093 305.086C206.777 305.086 213.183 306.529 220.311 309.327C220.763 309.507 221.123 309.597 221.394 309.597C222.026 309.597 222.387 309.326 222.387 308.875C222.387 308.514 221.936 307.973 221.033 307.341C218.236 305.627 214.356 304.274 209.394 303.281C204.341 302.289 199.288 301.567 194.325 301.296C186.656 300.665 181.152 298.319 177.814 294.258C174.475 290.198 172.761 286.047 172.761 281.807C172.761 274.318 176.821 267.911 184.942 262.588C191.709 258.167 201.634 255.821 214.898 255.37H215.8C220.582 255.37 224.733 255.821 228.432 256.723C232.131 257.625 235.38 258.618 238.357 259.701C243.139 261.415 246.658 262.317 248.824 262.317C250.087 262.317 251.35 262.137 252.523 261.776C248.643 271.521 244.493 278.017 240.162 281.175C235.741 284.333 231.59 285.957 227.62 285.957C226.537 285.957 225.454 285.867 224.372 285.687C219.319 284.784 214.447 282.529 209.845 278.829C205.243 275.13 201.183 270.979 197.664 266.197C196.671 264.934 195.95 264.302 195.408 264.302C195.138 264.302 194.957 264.393 194.867 264.573C194.596 264.934 194.416 265.475 194.416 266.287C194.416 266.829 194.506 267.46 194.596 268.182C196.671 276.844 200.01 283.341 204.431 287.672C208.852 292.003 213.364 295.431 218.146 298.048C220.582 299.492 222.928 300.935 225.003 302.469C227.079 304.003 228.883 305.808 230.417 307.883C231.139 308.966 231.5 309.958 231.5 310.86C231.5 311.492 231.319 312.124 230.868 312.755C230.056 313.928 228.973 314.56 227.439 314.56H226.808C225.184 314.379 223.65 314.289 222.206 314.289C215.8 314.289 210.747 316.094 206.867 319.613C202.085 324.034 199.469 328.184 198.837 332.245C198.205 336.305 197.844 339.192 197.844 340.907C197.844 345.328 198.837 349.388 200.822 353.087C203.529 358.231 208.13 360.937 214.537 361.298C219.77 361.208 223.74 358.952 226.537 354.621C229.244 350.381 230.958 345.779 231.77 340.907C232.583 336.034 232.943 331.974 232.943 328.635L232.853 325.117C232.853 324.214 233.214 323.763 233.846 323.763C234.207 323.763 234.928 324.034 235.921 324.575C240.884 327.372 245.395 329.899 249.365 332.335C251.982 333.869 253.696 335.042 254.689 335.764C252.974 342.621 249.997 348.396 245.666 353.087C241.244 357.87 236.462 361.389 231.139 363.735C225.815 366.08 220.853 367.253 216.251 367.253Z" fill="#F55FC0"/>
<path d="M109.817 266.197C107.97 268.168 105.999 270.201 103.904 272.295C101.81 274.266 99.3461 276.114 96.5127 277.839C93.8025 279.44 90.6611 280.795 87.0885 281.904C83.5159 283.013 79.4505 283.567 74.8924 283.567L74.7076 252.734H99.5584C123.161 250.046 136.456 250.046 160.265 252.734H172.646L172.761 273.1C171.058 275.1 171.049 277.333 170.558 280.306C167.791 280.188 165.223 279.833 162.852 279.241C159.895 278.378 157.185 277.269 154.721 275.914C152.257 274.436 149.978 272.835 147.884 271.11C145.913 269.385 144.065 267.599 142.34 265.751C140.369 270.555 138.029 274.744 135.318 278.317C132.731 281.889 130.206 285.277 127.742 288.48C125.401 291.56 123.369 294.64 121.644 297.719C119.919 300.799 119.057 304.187 119.057 307.883C119.057 312.811 120.861 313.595 123.334 314.6C126.29 318.665 129.467 321.044 132.916 325.725C136.489 330.407 139.692 335.765 142.525 341.802C145.359 347.715 146.775 354.983 146.775 363.607H109.817V266.197Z" fill="#0265DE"/>
<path d="M441.058 263.94C438.622 263.94 436.276 263.669 434.02 263.038C431.765 262.496 429.96 261.684 428.426 260.511C426.17 258.707 424.366 256.361 423.012 253.474C421.659 250.586 420.937 247.428 420.937 243.909C420.937 241.202 421.388 238.405 422.381 235.518C425.178 228.3 430.411 222.706 438.261 218.735C446.111 214.765 453.871 212.78 461.721 212.78C462.803 212.78 464.879 212.961 467.856 213.231C468.849 213.231 469.3 212.78 469.3 211.968C469.3 208.991 468.488 205.743 466.864 202.224C465.42 199.156 463.525 196.449 461.089 194.193C458.653 191.938 455.765 190.855 452.607 190.855C450.261 190.855 447.735 192.569 445.028 195.908C442.502 199.066 440.156 202.404 437.9 205.923C436.276 208.449 434.832 210.615 433.569 212.329C432.216 214.044 431.133 214.946 430.321 214.946C429.689 214.946 429.148 214.224 428.787 212.78C428.697 212.6 428.697 212.419 428.697 212.149C427.885 208.63 427.073 204.389 426.17 199.426C425.719 197.171 425.539 195.727 425.539 195.096C428.697 192.298 432.847 190.043 438.081 188.419C443.224 186.794 448.728 185.982 454.412 185.982C464.067 185.982 472.097 188.148 478.503 192.569C485.812 197.622 489.511 205.111 489.511 214.946L489.421 217.021C488.97 225.412 488.699 232.721 488.699 239.127C488.699 248.601 489.331 256.541 490.504 262.857H457.299C458.111 261.684 458.653 260.241 458.923 258.707C458.923 258.346 458.833 258.165 458.653 258.165C458.563 258.165 458.382 258.256 458.292 258.346C458.111 258.526 457.931 258.707 457.841 258.797C457.66 258.887 457.57 258.978 457.48 259.068C455.765 260.602 453.329 261.865 450.352 262.677C447.374 263.489 444.216 263.94 441.058 263.94ZM453.871 254.376C455.405 254.376 456.848 253.925 458.292 252.932C459.736 252.03 460.818 250.947 461.54 249.594C463.345 246.075 464.969 241.563 466.322 236.059C467.676 230.555 468.307 226.134 468.307 222.976C468.307 221.803 468.127 220.63 467.676 219.638C467.225 218.645 466.052 218.194 464.157 218.104C460.999 218.104 458.021 219.367 455.314 221.893C452.607 224.51 450.442 227.668 448.818 231.368C447.194 235.157 446.382 238.857 446.382 242.556C446.382 246.255 447.374 249.504 449.359 252.21C450.713 253.654 452.247 254.376 453.871 254.376Z" fill="#0265DE"/>
<path d="M348.685 247.855C346.96 247.855 345.235 247.731 343.511 247.485C341.786 247.362 340.061 247.177 338.337 246.931L348.13 197.223C349.362 190.447 350.656 183.302 352.011 175.787C353.489 168.149 354.906 160.634 356.261 153.243C357.616 145.728 358.786 138.768 359.772 132.362C360.881 125.956 361.743 120.535 362.359 116.1C367.656 115.115 373.015 114.191 378.436 113.328C383.856 112.466 389.4 112.035 395.067 112.035C404.183 112.035 411.39 113.944 416.687 117.763C421.984 121.459 425.803 126.387 428.144 132.546C430.485 138.583 431.655 145.235 431.655 152.504C431.655 159.033 430.731 165.932 428.883 173.2C427.035 180.345 424.386 187.49 420.937 194.635C417.611 201.657 413.607 208.31 408.926 214.593C401.657 224.325 392.788 232.332 382.316 238.615C371.968 244.775 360.758 247.855 348.685 247.855ZM370.675 224.571C374.986 221.738 379.052 217.426 382.871 211.636C386.813 205.846 390.509 198.886 393.958 190.755C397.038 183.24 399.44 176.157 401.165 169.504C402.889 162.729 403.752 157.123 403.752 152.688C403.752 148.13 402.458 144.558 399.871 141.971C397.407 139.384 393.465 138.09 388.045 138.09C386.074 148.685 384.041 158.478 381.947 167.472C379.976 176.465 378.005 185.519 376.033 194.635C374.186 203.752 372.399 213.73 370.675 224.571Z" fill="#0DA144"/>
<path d="M245.666 120.206H295.928C319.828 120.575 331.777 132.894 331.777 157.163V160.859H258.601C257.615 161.968 256.753 163.077 256.014 164.185C255.398 165.171 255.09 166.341 255.09 167.696C255.09 169.667 255.767 171.515 257.123 173.24C258.478 174.841 260.141 176.505 262.112 178.229C264.206 179.831 266.424 181.617 268.764 183.588C271.228 185.436 273.446 187.592 275.417 190.056C277.511 192.396 279.174 195.168 280.406 198.371C281.761 201.451 282.439 205.024 282.439 209.089C286.874 209.089 290.015 207.734 291.863 205.024C293.834 202.313 295.066 199.172 295.559 195.599C296.051 191.904 296.051 188.208 295.559 184.512C295.189 180.693 295.004 177.675 295.004 175.457H331.962C332.332 181.74 331.531 187.222 329.56 191.904C327.589 196.585 324.755 200.465 321.06 203.545C317.487 206.625 313.237 208.966 308.309 210.567C303.381 212.046 298.146 212.723 292.602 212.6H245.85L245.666 120.206ZM294.819 157.163C294.819 154.946 295.004 151.989 295.374 148.293C295.867 144.474 295.867 140.779 295.374 137.206C295.004 133.51 293.896 130.369 292.048 127.782C290.2 125.072 287.058 123.717 282.623 123.717C282.623 128.398 281.946 132.463 280.591 135.913C279.359 139.362 277.696 142.38 275.601 144.967C273.63 147.554 271.475 149.833 269.134 151.804C266.916 153.652 264.761 155.439 262.666 157.163H294.819Z" fill="#F55FC0"/>
<path d="M100.024 250.072V248.963C112.959 233.256 112.774 153.243 112.774 130.329V117.763C112.774 107.97 112.774 97.991 112.405 88.1972C111.665 71.1966 111.111 45.6958 88.382 45.6958C78.2186 45.6958 70.6423 51.7938 70.6423 62.5115C70.6423 71.0118 77.1099 78.2186 85.7949 78.2186C88.0124 78.2186 90.4146 77.6642 92.4473 76.5555L93.0017 78.2186C87.0884 86.3493 76.5555 89.6755 66.9465 89.6755C53.0873 89.6755 42 82.284 42 67.5008C42 47.3589 67.1313 42 83.0231 42C101.317 42 119.426 45.1414 137.721 45.1414C154.352 45.1414 170.983 42.7392 187.614 42.7392C218.288 42.7392 235.843 64.729 235.843 94.2952C235.843 117.579 223.463 145.112 198.516 150.286C209.973 177.82 242.311 257.279 277.051 257.279C286.845 257.279 294.421 250.072 294.421 240.278C294.421 229.93 285.921 225.31 276.497 226.05V225.126C281.856 221.43 288.508 219.397 294.976 219.397C306.987 219.397 320.846 224.941 320.846 238.985C320.846 254.507 304.954 262.638 291.28 262.638C278.53 262.638 266.334 258.757 253.953 255.801C240.094 252.474 225.865 250.257 211.636 250.257C206.092 250.257 200.734 250.626 195.19 251.181C194.82 233.072 167.656 152.504 147.514 152.504C147.699 171.722 148.069 235.659 160.265 248.963V250.072C150.101 248.963 139.938 248.224 129.775 248.224C119.796 248.224 109.817 248.963 100.024 250.072ZM147.514 147.145V147.699C149.177 147.884 150.656 147.884 152.319 147.884C182.255 147.884 197.407 124.231 197.407 96.3279C197.407 77.849 188.537 48.2828 165.624 48.2828C152.319 48.2828 148.254 56.5983 148.254 68.6096C148.254 94.8496 147.514 120.905 147.514 147.145Z" fill="#F2B505"/>
<path d="M488.6 349.304C490.078 348.564 480.469 359.467 468.273 362.793C463.284 364.087 451.457 366.489 443.142 362.054C440.37 360.945 437.783 358.913 435.75 355.771C415.978 326.944 438.892 293.313 431.87 284.812C430.946 284.258 429.837 283.704 428.359 283.519C419.304 282.964 411.173 290.541 406.369 296.824C406.369 313.639 406.369 332.303 406.369 345.423C406.369 347.271 406.369 349.304 406.369 350.967C406.369 355.032 411.173 362.239 413.76 362.608C413.76 362.978 413.76 364.641 413.76 364.641H364.052C364.052 364.641 364.052 362.978 364.052 362.608C366.27 362.239 370.705 355.586 371.259 351.706C371.259 331.194 371.259 291.834 371.259 271.877C369.042 256.724 360.911 255.985 360.911 255.985V253.953C387.52 253.953 400.456 239.909 404.336 235.658C405.445 235.658 406.369 235.658 406.369 235.658V260.975C406.369 265.225 406.369 272.062 406.369 280.377C406.369 283.519 406.369 286.845 406.369 290.171C413.206 282.04 425.587 272.616 438.337 271.323C438.337 271.323 475.295 269.29 467.534 301.813C460.327 331.933 463.838 345.977 476.589 350.597C479.73 351.151 483.611 350.967 488.6 349.304Z" stroke="white" stroke-width="68" stroke-linejoin="round" mask="url(#path-2-outside-2_85_84)"/>
<path d="M348.925 331.404C350.034 326.6 355.023 328.263 354.469 332.144C352.251 352.286 333.033 367.253 311.598 367.253C284.249 367.253 261.889 346.188 261.889 320.132C261.889 294.262 284.249 273.196 311.598 273.196C335.805 273.196 360.567 293.892 347.262 313.295C337.653 326.97 304.76 333.622 311.228 310.523C317.88 286.316 310.858 278.74 300.51 281.696C289.608 284.838 285.727 304.61 292.564 325.676C303.282 358.384 343.196 353.394 348.925 331.404Z" stroke="white" stroke-width="68" stroke-linejoin="round" mask="url(#path-2-outside-2_85_84)"/>
<path d="M216.251 367.253C202.987 367.253 192.972 364.637 186.115 359.404C179.167 354.26 175.287 349.208 174.295 344.335C173.302 339.463 172.761 335.854 172.761 333.598C172.761 328.816 173.844 324.214 176.009 319.883C180.972 310.048 189.363 305.086 201.093 305.086C206.777 305.086 213.183 306.529 220.311 309.327C220.763 309.507 221.123 309.597 221.394 309.597C222.026 309.597 222.387 309.326 222.387 308.875C222.387 308.514 221.936 307.973 221.033 307.341C218.236 305.627 214.356 304.274 209.394 303.281C204.341 302.289 199.288 301.567 194.325 301.296C186.656 300.665 181.152 298.319 177.814 294.258C174.475 290.198 172.761 286.047 172.761 281.807C172.761 274.318 176.821 267.911 184.942 262.588C191.709 258.167 201.634 255.821 214.898 255.37H215.8C220.582 255.37 224.733 255.821 228.432 256.723C232.131 257.625 235.38 258.618 238.357 259.701C243.139 261.415 246.658 262.317 248.824 262.317C250.087 262.317 251.35 262.137 252.523 261.776C248.643 271.521 244.493 278.017 240.162 281.175C235.741 284.333 231.59 285.957 227.62 285.957C226.537 285.957 225.454 285.867 224.372 285.687C219.319 284.784 214.447 282.529 209.845 278.829C205.243 275.13 201.183 270.979 197.664 266.197C196.671 264.934 195.95 264.302 195.408 264.302C195.138 264.302 194.957 264.393 194.867 264.573C194.596 264.934 194.416 265.475 194.416 266.287C194.416 266.829 194.506 267.46 194.596 268.182C196.671 276.844 200.01 283.341 204.431 287.672C208.852 292.003 213.364 295.431 218.146 298.048C220.582 299.492 222.928 300.935 225.003 302.469C227.079 304.003 228.883 305.808 230.417 307.883C231.139 308.966 231.5 309.958 231.5 310.86C231.5 311.492 231.319 312.124 230.868 312.755C230.056 313.928 228.973 314.56 227.439 314.56H226.808C225.184 314.379 223.65 314.289 222.206 314.289C215.8 314.289 210.747 316.094 206.867 319.613C202.085 324.034 199.469 328.184 198.837 332.245C198.205 336.305 197.844 339.192 197.844 340.907C197.844 345.328 198.837 349.388 200.822 353.087C203.529 358.231 208.13 360.937 214.537 361.298C219.77 361.208 223.74 358.952 226.537 354.621C229.244 350.381 230.958 345.779 231.77 340.907C232.583 336.034 232.943 331.974 232.943 328.635L232.853 325.117C232.853 324.214 233.214 323.763 233.846 323.763C234.207 323.763 234.928 324.034 235.921 324.575C240.884 327.372 245.395 329.899 249.365 332.335C251.982 333.869 253.696 335.042 254.689 335.764C252.974 342.621 249.997 348.396 245.666 353.087C241.244 357.87 236.462 361.389 231.139 363.735C225.815 366.08 220.853 367.253 216.251 367.253Z" stroke="white" stroke-width="68" stroke-linejoin="round" mask="url(#path-2-outside-2_85_84)"/>
<path d="M109.817 266.197C107.97 268.168 105.999 270.201 103.904 272.295C101.81 274.266 99.3461 276.114 96.5127 277.839C93.8025 279.44 90.6611 280.795 87.0885 281.904C83.5159 283.013 79.4505 283.567 74.8924 283.567L74.7076 252.734H99.5584C123.161 250.046 136.456 250.046 160.265 252.734H172.646L172.761 273.1C171.058 275.1 171.049 277.333 170.558 280.306C167.791 280.188 165.223 279.833 162.852 279.241C159.895 278.378 157.185 277.269 154.721 275.914C152.257 274.436 149.978 272.835 147.884 271.11C145.913 269.385 144.065 267.599 142.34 265.751C140.369 270.555 138.029 274.744 135.318 278.317C132.731 281.889 130.206 285.277 127.742 288.48C125.401 291.56 123.369 294.64 121.644 297.719C119.919 300.799 119.057 304.187 119.057 307.883C119.057 312.811 120.861 313.595 123.334 314.6C126.29 318.665 129.467 321.044 132.916 325.725C136.489 330.407 139.692 335.765 142.525 341.802C145.359 347.715 146.775 354.983 146.775 363.607H109.817V266.197Z" stroke="white" stroke-width="68" stroke-linejoin="round" mask="url(#path-2-outside-2_85_84)"/>
<path d="M441.058 263.94C438.622 263.94 436.276 263.669 434.02 263.038C431.765 262.496 429.96 261.684 428.426 260.511C426.17 258.707 424.366 256.361 423.012 253.474C421.659 250.586 420.937 247.428 420.937 243.909C420.937 241.202 421.388 238.405 422.381 235.518C425.178 228.3 430.411 222.706 438.261 218.735C446.111 214.765 453.871 212.78 461.721 212.78C462.803 212.78 464.879 212.961 467.856 213.231C468.849 213.231 469.3 212.78 469.3 211.968C469.3 208.991 468.488 205.743 466.864 202.224C465.42 199.156 463.525 196.449 461.089 194.193C458.653 191.938 455.765 190.855 452.607 190.855C450.261 190.855 447.735 192.569 445.028 195.908C442.502 199.066 440.156 202.404 437.9 205.923C436.276 208.449 434.832 210.615 433.569 212.329C432.216 214.044 431.133 214.946 430.321 214.946C429.689 214.946 429.148 214.224 428.787 212.78C428.697 212.6 428.697 212.419 428.697 212.149C427.885 208.63 427.073 204.389 426.17 199.426C425.719 197.171 425.539 195.727 425.539 195.096C428.697 192.298 432.847 190.043 438.081 188.419C443.224 186.794 448.728 185.982 454.412 185.982C464.067 185.982 472.097 188.148 478.503 192.569C485.812 197.622 489.511 205.111 489.511 214.946L489.421 217.021C488.97 225.412 488.699 232.721 488.699 239.127C488.699 248.601 489.331 256.541 490.504 262.857H457.299C458.111 261.684 458.653 260.241 458.923 258.707C458.923 258.346 458.833 258.165 458.653 258.165C458.563 258.165 458.382 258.256 458.292 258.346C458.111 258.526 457.931 258.707 457.841 258.797C457.66 258.887 457.57 258.978 457.48 259.068C455.765 260.602 453.329 261.865 450.352 262.677C447.374 263.489 444.216 263.94 441.058 263.94ZM453.871 254.376C455.405 254.376 456.848 253.925 458.292 252.932C459.736 252.03 460.818 250.947 461.54 249.594C463.345 246.075 464.969 241.563 466.322 236.059C467.676 230.555 468.307 226.134 468.307 222.976C468.307 221.803 468.127 220.63 467.676 219.638C467.225 218.645 466.052 218.194 464.157 218.104C460.999 218.104 458.021 219.367 455.314 221.893C452.607 224.51 450.442 227.668 448.818 231.368C447.194 235.157 446.382 238.857 446.382 242.556C446.382 246.255 447.374 249.504 449.359 252.21C450.713 253.654 452.247 254.376 453.871 254.376Z" stroke="white" stroke-width="68" stroke-linejoin="round" mask="url(#path-2-outside-2_85_84)"/>
<path d="M348.685 247.855C346.96 247.855 345.235 247.731 343.511 247.485C341.786 247.362 340.061 247.177 338.337 246.931L348.13 197.223C349.362 190.447 350.656 183.302 352.011 175.787C353.489 168.149 354.906 160.634 356.261 153.243C357.616 145.728 358.786 138.768 359.772 132.362C360.881 125.956 361.743 120.535 362.359 116.1C367.656 115.115 373.015 114.191 378.436 113.328C383.856 112.466 389.4 112.035 395.067 112.035C404.183 112.035 411.39 113.944 416.687 117.763C421.984 121.459 425.803 126.387 428.144 132.546C430.485 138.583 431.655 145.235 431.655 152.504C431.655 159.033 430.731 165.932 428.883 173.2C427.035 180.345 424.386 187.49 420.937 194.635C417.611 201.657 413.607 208.31 408.926 214.593C401.657 224.325 392.788 232.332 382.316 238.615C371.968 244.775 360.758 247.855 348.685 247.855ZM370.675 224.571C374.986 221.738 379.052 217.426 382.871 211.636C386.813 205.846 390.509 198.886 393.958 190.755C397.038 183.24 399.44 176.157 401.165 169.504C402.889 162.729 403.752 157.123 403.752 152.688C403.752 148.13 402.458 144.558 399.871 141.971C397.407 139.384 393.465 138.09 388.045 138.09C386.074 148.685 384.041 158.478 381.947 167.472C379.976 176.465 378.005 185.519 376.033 194.635C374.186 203.752 372.399 213.73 370.675 224.571Z" stroke="white" stroke-width="68" stroke-linejoin="round" mask="url(#path-2-outside-2_85_84)"/>
<path d="M245.666 120.206H295.928C319.828 120.575 331.777 132.894 331.777 157.163V160.859H258.601C257.615 161.968 256.753 163.077 256.014 164.185C255.398 165.171 255.09 166.341 255.09 167.696C255.09 169.667 255.767 171.515 257.123 173.24C258.478 174.841 260.141 176.505 262.112 178.229C264.206 179.831 266.424 181.617 268.764 183.588C271.228 185.436 273.446 187.592 275.417 190.056C277.511 192.396 279.174 195.168 280.406 198.371C281.761 201.451 282.439 205.024 282.439 209.089C286.874 209.089 290.015 207.734 291.863 205.024C293.834 202.313 295.066 199.172 295.559 195.599C296.051 191.904 296.051 188.208 295.559 184.512C295.189 180.693 295.004 177.675 295.004 175.457H331.962C332.332 181.74 331.531 187.222 329.56 191.904C327.589 196.585 324.755 200.465 321.06 203.545C317.487 206.625 313.237 208.966 308.309 210.567C303.381 212.046 298.146 212.723 292.602 212.6H245.85L245.666 120.206ZM294.819 157.163C294.819 154.946 295.004 151.989 295.374 148.293C295.867 144.474 295.867 140.779 295.374 137.206C295.004 133.51 293.896 130.369 292.048 127.782C290.2 125.072 287.058 123.717 282.623 123.717C282.623 128.398 281.946 132.463 280.591 135.913C279.359 139.362 277.696 142.38 275.601 144.967C273.63 147.554 271.475 149.833 269.134 151.804C266.916 153.652 264.761 155.439 262.666 157.163H294.819Z" stroke="white" stroke-width="68" stroke-linejoin="round" mask="url(#path-2-outside-2_85_84)"/>
<path d="M100.024 250.072V248.963C112.959 233.256 112.774 153.243 112.774 130.329V117.763C112.774 107.97 112.774 97.991 112.405 88.1972C111.665 71.1966 111.111 45.6958 88.382 45.6958C78.2186 45.6958 70.6423 51.7938 70.6423 62.5115C70.6423 71.0118 77.1099 78.2186 85.7949 78.2186C88.0124 78.2186 90.4146 77.6642 92.4473 76.5555L93.0017 78.2186C87.0884 86.3493 76.5555 89.6755 66.9465 89.6755C53.0873 89.6755 42 82.284 42 67.5008C42 47.3589 67.1313 42 83.0231 42C101.317 42 119.426 45.1414 137.721 45.1414C154.352 45.1414 170.983 42.7392 187.614 42.7392C218.288 42.7392 235.843 64.729 235.843 94.2952C235.843 117.579 223.463 145.112 198.516 150.286C209.973 177.82 242.311 257.279 277.051 257.279C286.845 257.279 294.421 250.072 294.421 240.278C294.421 229.93 285.921 225.31 276.497 226.05V225.126C281.856 221.43 288.508 219.397 294.976 219.397C306.987 219.397 320.846 224.941 320.846 238.985C320.846 254.507 304.954 262.638 291.28 262.638C278.53 262.638 266.334 258.757 253.953 255.801C240.094 252.474 225.865 250.257 211.636 250.257C206.092 250.257 200.734 250.626 195.19 251.181C194.82 233.072 167.656 152.504 147.514 152.504C147.699 171.722 148.069 235.659 160.265 248.963V250.072C150.101 248.963 139.938 248.224 129.775 248.224C119.796 248.224 109.817 248.963 100.024 250.072ZM147.514 147.145V147.699C149.177 147.884 150.656 147.884 152.319 147.884C182.255 147.884 197.407 124.231 197.407 96.3279C197.407 77.849 188.537 48.2828 165.624 48.2828C152.319 48.2828 148.254 56.5983 148.254 68.6096C148.254 94.8496 147.514 120.905 147.514 147.145Z" stroke="white" stroke-width="68" stroke-linejoin="round" mask="url(#path-2-outside-2_85_84)"/>
<defs>
<filter id="filter0_d_85_84" x="0" y="0" width="532.504" height="424.253" filterUnits="userSpaceOnUse" color-interpolation-filters="sRGB">
<feFlood flood-opacity="0" result="BackgroundImageFix"/>
<feColorMatrix in="SourceAlpha" type="matrix" values="0 0 0 0 0 0 0 0 0 0 0 0 0 0 0 0 0 0 127 0" result="hardAlpha"/>
<feOffset dy="15"/>
<feComposite in2="hardAlpha" operator="out"/>
<feColorMatrix type="matrix" values="0 0 0 0 0 0 0 0 0 0 0 0 0 0 0 0 0 0 1 0"/>
<feBlend mode="normal" in2="BackgroundImageFix" result="effect1_dropShadow_85_84"/>
<feBlend mode="normal" in="SourceGraphic" in2="effect1_dropShadow_85_84" result="shape"/>
</filter>
</defs>
</svg>
